<?xml version="1.0" encoding="utf-8"?>
<!-- Generator: Adobe Illustrator 16.0.0, SVG Export Plug-In . SVG Version: 6.00 Build 0)  -->
<!DOCTYPE svg PUBLIC "-//W3C//DTD SVG 1.1//EN" "http://www.w3.org/Graphics/SVG/1.1/DTD/svg11.dtd">
<svg version="1.1" id="Layer_1" xmlns="http://www.w3.org/2000/svg" xmlns:xlink="http://www.w3.org/1999/xlink" x="0px" y="0px"
	 width="282.4px" height="414.9px" viewBox="0 0 282.4 414.9" style="enable-background:new 0 0 282.4 414.9;" xml:space="preserve"
	>
<g>
	<path style="fill:#F45B5B;" d="M83.8,275.5c1.5,9.7,9.6,17.6,17.9,17.7l77.2,0.2c8.3,0,16.4-7.9,17.9-17.6l10.8-68.5
		c1.5-9.7-4-17.7-12.3-17.7l-110.1-0.3c-8.3,0-13.8,7.9-12.3,17.6L83.8,275.5z"/>
	<g>
		<path style="fill:#F45B5B;" d="M214.9,308.4c-3.1-9.9-13.5-18-23.1-18.1L91,290.1c-9.6,0-19.2,8.3-21.3,18.5l-13,63.2
			c-2.1,10.2,4,20.1,13.5,21.9l54.2,10.3c9.5,1.8,25.1,2,34.6,0.5l64.5-10.2c9.5-1.5,14.8-10.9,11.7-20.8L214.9,308.4z"/>
	</g>
</g>
<g id="computer">
	<path style="fill-rule:evenodd;clip-rule:evenodd;fill:#FFFFFF;" d="M50.9,66.5l188.8-0.4c2.4,0,4.4,2,4.4,4.4l0.3,122.5
		c0,2.4-2,4.4-4.4,4.4l-188.8,0.4c-2.4,0-4.4-2-4.4-4.4L46.6,70.9C46.5,68.5,48.5,66.5,50.9,66.5z"/>
	<path style="fill-rule:evenodd;clip-rule:evenodd;fill:#B3B3B3;" d="M59.5,66.5l11,0l0,6.3c0,0.6-0.5,1-1,1l-8.9,0
		c-0.6,0-1-0.5-1-1L59.5,66.5z"/>
	<path style="fill-rule:evenodd;clip-rule:evenodd;fill:#B3B3B3;" d="M220.3,66.1l10.9,0l0,6.3c0,0.6-0.5,1-1,1l-8.9,0
		c-0.6,0-1-0.5-1-1L220.3,66.1z"/>
	<path style="fill-rule:evenodd;clip-rule:evenodd;fill:#CCCCCC;" d="M32.6,8.5l225-0.5c5.4,0,7.1,2.5,4.8,6l-18.7,49.9L46.5,64.3
		L29.7,17.5C25.9,11.6,26.6,8.5,32.6,8.5z"/>
	<polygon style="fill-rule:evenodd;clip-rule:evenodd;fill:#FFFFFF;" points="250.9,17 237.3,59.9 53.1,60.3 39.1,17.5 	"/>
	<path style="fill-rule:evenodd;clip-rule:evenodd;fill:#FFFFFF;" d="M31.3,9.3l228-0.5c0.5,0,0.9,0.4,0.9,0.9l0,0
		c0,0.5-0.4,0.9-0.9,0.9l-228,0.5c-0.5,0-0.9-0.4-0.9-0.9l0,0C30.4,9.7,30.8,9.3,31.3,9.3z"/>
	<path style="fill-rule:evenodd;clip-rule:evenodd;fill:#FFFFFF;" d="M61.1,60.8l7.8,0c0.5,0,0.9,0.4,0.9,0.9l0,9.3
		c0,0.5-0.4,0.9-0.9,0.9l-7.8,0c-0.5,0-0.9-0.4-0.9-0.9l0-9.3C60.2,61.2,60.6,60.8,61.1,60.8z"/>
	<path style="fill-rule:evenodd;clip-rule:evenodd;fill:#FFFFFF;" d="M221.8,60.5l7.8,0c0.5,0,0.9,0.4,0.9,0.9l0,9.3
		c0,0.5-0.4,0.9-0.9,0.9l-7.8,0c-0.5,0-0.9-0.4-0.9-0.9l0-9.3C220.9,60.9,221.3,60.5,221.8,60.5z"/>
	<path style="fill-rule:evenodd;clip-rule:evenodd;fill:#CCCCCC;" d="M225,83.6l6.1,0c0.7,0,1.3,0.6,1.3,1.3l0,4.5
		c0,0.7-0.6,1.3-1.3,1.3l-6.1,0c-0.7,0-1.3-0.6-1.3-1.3l0-4.5C223.7,84.2,224.3,83.6,225,83.6z"/>
	<path style="fill-rule:evenodd;clip-rule:evenodd;fill:#CCCCCC;" d="M225.3,92.3l5.5,0c0.8,0,1.5,0.7,1.5,1.5l0,6.1
		c0,0.8-0.7,1.5-1.5,1.5l-5.5,0c-0.8,0-1.5-0.7-1.5-1.5l0-6.1C223.8,93,224.4,92.3,225.3,92.3z"/>
	<path style="fill-rule:evenodd;clip-rule:evenodd;fill:#CCCCCC;" d="M225.3,103.1l5.5,0c0.8,0,1.5,0.7,1.5,1.5l0,6.1
		c0,0.9-0.7,1.5-1.5,1.5l-5.5,0c-0.8,0-1.5-0.7-1.5-1.5l0-6.1C223.8,103.8,224.5,103.1,225.3,103.1z"/>
	<path style="fill-rule:evenodd;clip-rule:evenodd;fill:#CCCCCC;" d="M225.3,113.9l5.5,0c0.8,0,1.5,0.7,1.5,1.5l0,6.1
		c0,0.8-0.7,1.5-1.5,1.5l-5.5,0c-0.8,0-1.5-0.7-1.5-1.5l0-6.1C223.8,114.6,224.5,113.9,225.3,113.9z"/>
	<path style="fill-rule:evenodd;clip-rule:evenodd;fill:#CCCCCC;" d="M225.4,124.7l5.5,0c0.8,0,1.5,0.7,1.5,1.5l0,6.1
		c0,0.8-0.7,1.5-1.5,1.5l-5.5,0c-0.8,0-1.5-0.7-1.5-1.5l0-6.1C223.8,125.4,224.5,124.7,225.4,124.7z"/>
	<path style="fill-rule:evenodd;clip-rule:evenodd;fill:#CCCCCC;" d="M225.4,135.5l5.5,0c0.8,0,1.5,0.7,1.5,1.5l0,6.1
		c0,0.8-0.7,1.5-1.5,1.5l-5.5,0c-0.8,0-1.5-0.7-1.5-1.5l0-6.1C223.9,136.2,224.6,135.5,225.4,135.5z"/>
	<path style="fill-rule:evenodd;clip-rule:evenodd;fill:#CCCCCC;" d="M214.2,83.7l6.1,0c0.7,0,1.3,0.6,1.3,1.3l0,4.5
		c0,0.7-0.6,1.3-1.3,1.3l-6.1,0c-0.7,0-1.3-0.6-1.3-1.3l0-4.5C213,84.2,213.5,83.7,214.2,83.7z"/>
	<path style="fill-rule:evenodd;clip-rule:evenodd;fill:#CCCCCC;" d="M204.7,92.3l15.3,0c0.9,0,1.7,0.7,1.7,1.6l0,5.9
		c0,0.9-0.7,1.6-1.6,1.6l-15.3,0c-0.9,0-1.7-0.7-1.7-1.6l0-5.9C203,93.1,203.8,92.3,204.7,92.3z"/>
	<path style="fill-rule:evenodd;clip-rule:evenodd;fill:#CCCCCC;" d="M211.7,103.1l8.3,0c0.9,0,1.6,0.7,1.7,1.6l0,5.9
		c0,0.9-0.7,1.7-1.6,1.7l-8.3,0c-0.9,0-1.6-0.7-1.6-1.6l0-5.9C210.1,103.9,210.8,103.1,211.7,103.1z"/>
	<path style="fill-rule:evenodd;clip-rule:evenodd;fill:#CCCCCC;" d="M203.5,114l16.5,0c0.9,0,1.6,0.7,1.6,1.6l0,5.9
		c0,0.9-0.7,1.6-1.6,1.6l-16.5,0c-0.9,0-1.6-0.7-1.6-1.6l0-5.9C201.9,114.7,202.6,114,203.5,114z"/>
	<path style="fill-rule:evenodd;clip-rule:evenodd;fill:#CCCCCC;" d="M214.6,124.7l5.5,0c0.8,0,1.5,0.7,1.5,1.5l0,6.1
		c0,0.8-0.7,1.5-1.5,1.5l-5.5,0c-0.8,0-1.5-0.7-1.5-1.5l0-6.1C213.1,125.4,213.8,124.7,214.6,124.7z"/>
	<path style="fill-rule:evenodd;clip-rule:evenodd;fill:#CCCCCC;" d="M214.6,135.5l5.5,0c0.8,0,1.5,0.7,1.5,1.5l0,6.1
		c0,0.8-0.7,1.5-1.5,1.5l-5.5,0c-0.8,0-1.5-0.7-1.5-1.5l0-6.1C213.1,136.2,213.8,135.6,214.6,135.5z"/>
	<path style="fill-rule:evenodd;clip-rule:evenodd;fill:#CCCCCC;" d="M204.3,83.7l5.3,0c0.7,0,1.3,0.6,1.3,1.3l0,4.5
		c0,0.7-0.6,1.3-1.3,1.3l-5.3,0c-0.7,0-1.3-0.6-1.3-1.3l0-4.5C203,84.2,203.6,83.7,204.3,83.7z"/>
	<path style="fill-rule:evenodd;clip-rule:evenodd;fill:#CCCCCC;" d="M194.2,83.7l5.3,0c0.7,0,1.3,0.6,1.3,1.3l0,4.5
		c0,0.7-0.6,1.3-1.3,1.3l-5.3,0c-0.7,0-1.3-0.6-1.3-1.3l0-4.5C192.9,84.3,193.5,83.7,194.2,83.7z"/>
	<path style="fill-rule:evenodd;clip-rule:evenodd;fill:#CCCCCC;" d="M184,83.7l5.3,0c0.7,0,1.3,0.6,1.3,1.3l0,4.5
		c0,0.7-0.6,1.3-1.3,1.3l-5.3,0c-0.7,0-1.3-0.6-1.3-1.3l0-4.5C182.8,84.3,183.4,83.7,184,83.7z"/>
	<path style="fill-rule:evenodd;clip-rule:evenodd;fill:#CCCCCC;" d="M173.9,83.7l5.3,0c0.7,0,1.3,0.6,1.3,1.3l0,4.5
		c0,0.7-0.6,1.3-1.3,1.3l-5.3,0c-0.7,0-1.3-0.6-1.3-1.3l0-4.5C172.7,84.3,173.2,83.7,173.9,83.7z"/>
	<path style="fill-rule:evenodd;clip-rule:evenodd;fill:#CCCCCC;" d="M163.8,83.8l5.3,0c0.7,0,1.3,0.6,1.3,1.3l0,4.5
		c0,0.7-0.6,1.3-1.3,1.3l-5.3,0c-0.7,0-1.3-0.6-1.3-1.3l0-4.5C162.6,84.3,163.1,83.8,163.8,83.8z"/>
	<path style="fill-rule:evenodd;clip-rule:evenodd;fill:#CCCCCC;" d="M153.7,83.8l5.3,0c0.7,0,1.3,0.6,1.3,1.3l0,4.5
		c0,0.7-0.6,1.3-1.3,1.3l-5.3,0c-0.7,0-1.3-0.6-1.3-1.3l0-4.5C152.4,84.4,153,83.8,153.7,83.8z"/>
	<path style="fill-rule:evenodd;clip-rule:evenodd;fill:#CCCCCC;" d="M143.6,83.8l5.3,0c0.7,0,1.3,0.6,1.3,1.3l0,4.5
		c0,0.7-0.6,1.3-1.3,1.3l-5.3,0c-0.7,0-1.3-0.6-1.3-1.3l0-4.5C142.3,84.4,142.9,83.8,143.6,83.8z"/>
	<path style="fill-rule:evenodd;clip-rule:evenodd;fill:#CCCCCC;" d="M133.5,83.8l5.3,0c0.7,0,1.3,0.6,1.3,1.3l0,4.5
		c0,0.7-0.6,1.3-1.3,1.3l-5.3,0c-0.7,0-1.3-0.6-1.3-1.3l0-4.5C132.2,84.4,132.8,83.8,133.5,83.8z"/>
	<path style="fill-rule:evenodd;clip-rule:evenodd;fill:#CCCCCC;" d="M123.4,83.9l5.3,0c0.7,0,1.3,0.6,1.3,1.3l0,4.5
		c0,0.7-0.6,1.3-1.3,1.3l-5.3,0c-0.7,0-1.3-0.6-1.3-1.3l0-4.5C122.1,84.4,122.7,83.9,123.4,83.9z"/>
	<path style="fill-rule:evenodd;clip-rule:evenodd;fill:#CCCCCC;" d="M113.3,83.9l5.3,0c0.7,0,1.3,0.6,1.3,1.3l0,4.5
		c0,0.7-0.6,1.3-1.3,1.3l-5.3,0c-0.7,0-1.3-0.6-1.3-1.3l0-4.5C112,84.5,112.6,83.9,113.3,83.9z"/>
	<path style="fill-rule:evenodd;clip-rule:evenodd;fill:#CCCCCC;" d="M103.1,83.9l5.3,0c0.7,0,1.3,0.6,1.3,1.3l0,4.5
		c0,0.7-0.6,1.3-1.3,1.3l-5.3,0c-0.7,0-1.3-0.6-1.3-1.3l0-4.5C101.9,84.5,102.4,83.9,103.1,83.9z"/>
	<path style="fill-rule:evenodd;clip-rule:evenodd;fill:#CCCCCC;" d="M93,83.9l5.3,0c0.7,0,1.3,0.6,1.3,1.3l0,4.5
		c0,0.7-0.6,1.3-1.3,1.3L93,91c-0.7,0-1.3-0.6-1.3-1.3l0-4.5C91.8,84.5,92.3,83.9,93,83.9z"/>
	<path style="fill-rule:evenodd;clip-rule:evenodd;fill:#CCCCCC;" d="M82.9,83.9l5.3,0c0.7,0,1.3,0.6,1.3,1.3l0,4.5
		c0,0.7-0.6,1.3-1.3,1.3l-5.3,0c-0.7,0-1.3-0.6-1.3-1.3l0-4.5C81.7,84.5,82.2,84,82.9,83.9z"/>
	<path style="fill-rule:evenodd;clip-rule:evenodd;fill:#CCCCCC;" d="M72.8,84l5.3,0c0.7,0,1.3,0.6,1.3,1.3l0,4.5
		c0,0.7-0.6,1.3-1.3,1.3l-5.3,0c-0.7,0-1.3-0.6-1.3-1.3l0-4.5C71.5,84.5,72.1,84,72.8,84z"/>
	<path style="fill-rule:evenodd;clip-rule:evenodd;fill:#CCCCCC;" d="M61.4,84l6.1,0c0.7,0,1.3,0.6,1.3,1.3l0,4.5
		c0,0.7-0.6,1.3-1.3,1.3l-6.1,0c-0.7,0-1.3-0.6-1.3-1.3l0-4.5C60.2,84.6,60.7,84,61.4,84z"/>
	<path style="fill-rule:evenodd;clip-rule:evenodd;fill:#CCCCCC;" d="M193.8,92.3l5.4,0c0.8,0,1.5,0.7,1.5,1.5l0,6.2
		c0,0.8-0.7,1.5-1.5,1.5l-5.4,0c-0.8,0-1.5-0.7-1.5-1.5l0-6.2C192.3,93,192.9,92.3,193.8,92.3z"/>
	<path style="fill-rule:evenodd;clip-rule:evenodd;fill:#CCCCCC;" d="M182.8,92.4l5.4,0c0.8,0,1.5,0.7,1.5,1.5l0,6.2
		c0,0.8-0.7,1.5-1.5,1.5l-5.4,0c-0.8,0-1.5-0.7-1.5-1.5l0-6.2C181.3,93.1,182,92.4,182.8,92.4z"/>
	<path style="fill-rule:evenodd;clip-rule:evenodd;fill:#CCCCCC;" d="M171.8,92.4l5.4,0c0.8,0,1.5,0.7,1.5,1.5l0,6.2
		c0,0.8-0.7,1.5-1.5,1.5l-5.4,0c-0.8,0-1.5-0.7-1.5-1.5l0-6.2C170.3,93.1,171,92.4,171.8,92.4z"/>
	<path style="fill-rule:evenodd;clip-rule:evenodd;fill:#CCCCCC;" d="M160.9,92.4l5.4,0c0.8,0,1.5,0.7,1.5,1.5l0,6.2
		c0,0.8-0.7,1.5-1.5,1.5l-5.4,0c-0.8,0-1.5-0.7-1.5-1.5l0-6.2C159.3,93.1,160,92.4,160.9,92.4z"/>
	<path style="fill-rule:evenodd;clip-rule:evenodd;fill:#CCCCCC;" d="M149.9,92.4l5.4,0c0.8,0,1.5,0.7,1.5,1.5l0,6.2
		c0,0.8-0.7,1.5-1.5,1.5l-5.4,0c-0.8,0-1.5-0.7-1.5-1.5l0-6.2C148.4,93.1,149,92.4,149.9,92.4z"/>
	<path style="fill-rule:evenodd;clip-rule:evenodd;fill:#CCCCCC;" d="M138.9,92.5l5.4,0c0.8,0,1.5,0.7,1.5,1.5l0,6.2
		c0,0.8-0.7,1.5-1.5,1.5l-5.4,0c-0.8,0-1.5-0.7-1.5-1.5l0-6.2C137.4,93.2,138.1,92.5,138.9,92.5z"/>
	<path style="fill-rule:evenodd;clip-rule:evenodd;fill:#CCCCCC;" d="M127.9,92.5l5.4,0c0.8,0,1.5,0.7,1.5,1.5l0,6.2
		c0,0.8-0.7,1.5-1.5,1.5l-5.4,0c-0.8,0-1.5-0.7-1.5-1.5l0-6.2C126.4,93.2,127.1,92.5,127.9,92.5z"/>
	<path style="fill-rule:evenodd;clip-rule:evenodd;fill:#CCCCCC;" d="M117,92.5l5.4,0c0.8,0,1.5,0.7,1.5,1.5l0,6.2
		c0,0.8-0.7,1.5-1.5,1.5l-5.4,0c-0.8,0-1.5-0.7-1.5-1.5l0-6.2C115.5,93.2,116.1,92.5,117,92.5z"/>
	<path style="fill-rule:evenodd;clip-rule:evenodd;fill:#CCCCCC;" d="M106,92.5l5.4,0c0.8,0,1.5,0.7,1.5,1.5l0,6.2
		c0,0.8-0.7,1.5-1.5,1.5l-5.4,0c-0.8,0-1.5-0.7-1.5-1.5l0-6.2C104.5,93.2,105.2,92.5,106,92.5z"/>
	<path style="fill-rule:evenodd;clip-rule:evenodd;fill:#CCCCCC;" d="M95,92.6l5.4,0c0.8,0,1.5,0.7,1.5,1.5l0,6.2
		c0,0.8-0.7,1.5-1.5,1.5l-5.4,0c-0.8,0-1.5-0.7-1.5-1.5l0-6.2C93.5,93.3,94.2,92.6,95,92.6z"/>
	<path style="fill-rule:evenodd;clip-rule:evenodd;fill:#CCCCCC;" d="M84,92.6l5.4,0c0.8,0,1.5,0.7,1.5,1.5l0,6.2
		c0,0.8-0.7,1.5-1.5,1.5l-5.4,0c-0.8,0-1.5-0.7-1.5-1.5l0-6.2C82.5,93.3,83.2,92.6,84,92.6z"/>
	<path style="fill-rule:evenodd;clip-rule:evenodd;fill:#CCCCCC;" d="M73.1,92.6l5.4,0c0.8,0,1.5,0.7,1.5,1.5l0,6.2
		c0,0.8-0.7,1.5-1.5,1.5l-5.4,0c-0.8,0-1.5-0.7-1.5-1.5l0-6.2C71.6,93.3,72.2,92.6,73.1,92.6z"/>
	<path style="fill-rule:evenodd;clip-rule:evenodd;fill:#CCCCCC;" d="M61.7,92.6l5.5,0c0.8,0,1.5,0.7,1.5,1.5l0,6.1
		c0,0.8-0.7,1.5-1.5,1.5l-5.5,0c-0.8,0-1.5-0.7-1.5-1.5l0-6.1C60.2,93.3,60.9,92.6,61.7,92.6z"/>
	<path style="fill-rule:evenodd;clip-rule:evenodd;fill:#CCCCCC;" d="M61.9,103.5l11.4,0c0.9,0,1.6,0.7,1.7,1.6l0,5.9
		c0,0.9-0.7,1.6-1.6,1.7l-11.4,0c-0.9,0-1.6-0.7-1.6-1.6l0-5.9C60.2,104.2,61,103.5,61.9,103.5z"/>
	<path style="fill-rule:evenodd;clip-rule:evenodd;fill:#CCCCCC;" d="M61.9,114.3l13.5,0c0.9,0,1.7,0.7,1.7,1.6l0,5.9
		c0,0.9-0.7,1.6-1.6,1.6l-13.6,0c-0.9,0-1.6-0.7-1.7-1.6l0-5.9C60.2,115,61,114.3,61.9,114.3z"/>
	<path style="fill-rule:evenodd;clip-rule:evenodd;fill:#CCCCCC;" d="M61.9,125.1l19.4,0c0.9,0,1.7,0.7,1.7,1.6l0,5.9
		c0,0.9-0.7,1.7-1.6,1.7l-19.4,0c-0.9,0-1.6-0.7-1.6-1.6l0-5.9C60.3,125.8,61,125.1,61.9,125.1z"/>
	<path style="fill-rule:evenodd;clip-rule:evenodd;fill:#CCCCCC;" d="M61.9,135.9l8.1,0c0.9,0,1.6,0.7,1.6,1.6l0,5.9
		c0,0.9-0.7,1.6-1.6,1.6l-8.1,0c-0.9,0-1.7-0.7-1.7-1.6l0-5.9C60.3,136.6,61,135.9,61.9,135.9z"/>
	<path style="fill-rule:evenodd;clip-rule:evenodd;fill:#CCCCCC;" d="M77.9,103.4l5.8,0c0.9,0,1.6,0.7,1.6,1.6l0,6
		c0,0.9-0.7,1.6-1.6,1.6l-5.8,0c-0.9,0-1.6-0.7-1.6-1.6l0-6C76.3,104.2,77,103.4,77.9,103.4z"/>
	<path style="fill-rule:evenodd;clip-rule:evenodd;fill:#CCCCCC;" d="M89.1,103.4l5.8,0c0.9,0,1.6,0.7,1.6,1.6l0,6
		c0,0.9-0.7,1.6-1.6,1.6l-5.8,0c-0.9,0-1.6-0.7-1.6-1.6l0-6C87.5,104.1,88.2,103.4,89.1,103.4z"/>
	<path style="fill-rule:evenodd;clip-rule:evenodd;fill:#CCCCCC;" d="M100.3,103.4l5.8,0c0.9,0,1.6,0.7,1.6,1.6l0,6
		c0,0.9-0.7,1.6-1.6,1.6l-5.8,0c-0.9,0-1.6-0.7-1.6-1.6l0-6C98.6,104.1,99.4,103.4,100.3,103.4z"/>
	<path style="fill-rule:evenodd;clip-rule:evenodd;fill:#CCCCCC;" d="M111.4,103.3l5.8,0c0.9,0,1.6,0.7,1.6,1.6l0,6
		c0,0.9-0.7,1.6-1.6,1.6l-5.8,0c-0.9,0-1.6-0.7-1.6-1.6l0-6C109.8,104.1,110.5,103.3,111.4,103.3z"/>
	<path style="fill-rule:evenodd;clip-rule:evenodd;fill:#CCCCCC;" d="M122.6,103.3l5.8,0c0.9,0,1.6,0.7,1.6,1.6l0,6
		c0,0.9-0.7,1.6-1.6,1.6l-5.8,0c-0.9,0-1.6-0.7-1.6-1.6l0-6C121,104.1,121.7,103.3,122.6,103.3z"/>
	<path style="fill-rule:evenodd;clip-rule:evenodd;fill:#CCCCCC;" d="M133.8,103.3l5.8,0c0.9,0,1.6,0.7,1.6,1.6l0,6
		c0,0.9-0.7,1.6-1.6,1.6l-5.8,0c-0.9,0-1.6-0.7-1.6-1.6l0-6C132.2,104,132.9,103.3,133.8,103.3z"/>
	<path style="fill-rule:evenodd;clip-rule:evenodd;fill:#CCCCCC;" d="M145,103.3l5.8,0c0.9,0,1.6,0.7,1.6,1.6l0,6
		c0,0.9-0.7,1.6-1.6,1.6l-5.8,0c-0.9,0-1.6-0.7-1.6-1.6l0-6C143.4,104,144.1,103.3,145,103.3z"/>
	<path style="fill-rule:evenodd;clip-rule:evenodd;fill:#CCCCCC;" d="M156.1,103.2l5.8,0c0.9,0,1.6,0.7,1.6,1.6l0,6
		c0,0.9-0.7,1.6-1.6,1.6l-5.8,0c-0.9,0-1.6-0.7-1.6-1.6l0-6C154.5,104,155.3,103.2,156.1,103.2z"/>
	<path style="fill-rule:evenodd;clip-rule:evenodd;fill:#CCCCCC;" d="M167.3,103.2l5.8,0c0.9,0,1.6,0.7,1.6,1.6l0,6
		c0,0.9-0.7,1.6-1.6,1.6l-5.8,0c-0.9,0-1.6-0.7-1.6-1.6l0-6C165.7,104,166.4,103.2,167.3,103.2z"/>
	<path style="fill-rule:evenodd;clip-rule:evenodd;fill:#CCCCCC;" d="M178.5,103.2l5.8,0c0.9,0,1.6,0.7,1.6,1.6l0,6
		c0,0.9-0.7,1.6-1.6,1.6l-5.8,0c-0.9,0-1.6-0.7-1.6-1.6l0-6C176.9,103.9,177.6,103.2,178.5,103.2z"/>
	<path style="fill-rule:evenodd;clip-rule:evenodd;fill:#CCCCCC;" d="M189.7,103.2l5.8,0c0.9,0,1.6,0.7,1.6,1.6l0,6
		c0,0.9-0.7,1.6-1.6,1.6l-5.8,0c-0.9,0-1.6-0.7-1.6-1.6l0-6C188.1,103.9,188.8,103.2,189.7,103.2z"/>
	<path style="fill-rule:evenodd;clip-rule:evenodd;fill:#CCCCCC;" d="M200.9,103.1l5.8,0c0.9,0,1.6,0.7,1.6,1.6l0,6
		c0,0.9-0.7,1.6-1.6,1.6l-5.8,0c-0.9,0-1.6-0.7-1.6-1.6l0-6C199.3,103.9,200,103.1,200.9,103.1z"/>
	<path style="fill-rule:evenodd;clip-rule:evenodd;fill:#CCCCCC;" d="M81,114.2l5.8,0c0.9,0,1.6,0.7,1.6,1.6l0,6
		c0,0.9-0.7,1.6-1.6,1.6l-5.8,0c-0.9,0-1.6-0.7-1.6-1.6l0-6C79.4,115,80.1,114.2,81,114.2z"/>
	<path style="fill-rule:evenodd;clip-rule:evenodd;fill:#CCCCCC;" d="M92.2,114.2l5.8,0c0.9,0,1.6,0.7,1.6,1.6l0,6
		c0,0.9-0.7,1.6-1.6,1.6l-5.8,0c-0.9,0-1.6-0.7-1.6-1.6l0-6C90.6,114.9,91.3,114.2,92.2,114.2z"/>
	<path style="fill-rule:evenodd;clip-rule:evenodd;fill:#CCCCCC;" d="M103.4,114.2l5.8,0c0.9,0,1.6,0.7,1.6,1.6l0,6
		c0,0.9-0.7,1.6-1.6,1.6l-5.8,0c-0.9,0-1.6-0.7-1.6-1.6l0-6C101.8,114.9,102.5,114.2,103.4,114.2z"/>
	<path style="fill-rule:evenodd;clip-rule:evenodd;fill:#CCCCCC;" d="M114.6,114.2l5.8,0c0.9,0,1.6,0.7,1.6,1.6l0,6
		c0,0.9-0.7,1.6-1.6,1.6l-5.8,0c-0.9,0-1.6-0.7-1.6-1.6l0-6C113,114.9,113.7,114.2,114.6,114.2z"/>
	<path style="fill-rule:evenodd;clip-rule:evenodd;fill:#CCCCCC;" d="M125.7,114.1l5.8,0c0.9,0,1.6,0.7,1.6,1.6l0,6
		c0,0.9-0.7,1.6-1.6,1.6l-5.8,0c-0.9,0-1.6-0.7-1.6-1.6l0-6C124.1,114.9,124.9,114.1,125.7,114.1z"/>
	<path style="fill-rule:evenodd;clip-rule:evenodd;fill:#CCCCCC;" d="M136.9,114.1l5.8,0c0.9,0,1.6,0.7,1.6,1.6l0,6
		c0,0.9-0.7,1.6-1.6,1.6l-5.8,0c-0.9,0-1.6-0.7-1.6-1.6l0-6C135.3,114.8,136,114.1,136.9,114.1z"/>
	<path style="fill-rule:evenodd;clip-rule:evenodd;fill:#CCCCCC;" d="M148.1,114.1l5.8,0c0.9,0,1.6,0.7,1.6,1.6l0,6
		c0,0.9-0.7,1.6-1.6,1.6l-5.8,0c-0.9,0-1.6-0.7-1.6-1.6l0-6C146.5,114.8,147.2,114.1,148.1,114.1z"/>
	<path style="fill-rule:evenodd;clip-rule:evenodd;fill:#CCCCCC;" d="M159.3,114.1l5.8,0c0.9,0,1.6,0.7,1.6,1.6l0,6
		c0,0.9-0.7,1.6-1.6,1.6l-5.8,0c-0.9,0-1.6-0.7-1.6-1.6l0-6C157.7,114.8,158.4,114.1,159.3,114.1z"/>
	<path style="fill-rule:evenodd;clip-rule:evenodd;fill:#CCCCCC;" d="M170.5,114l5.8,0c0.9,0,1.6,0.7,1.6,1.6l0,6
		c0,0.9-0.7,1.6-1.6,1.6l-5.8,0c-0.9,0-1.6-0.7-1.6-1.6l0-6C168.8,114.8,169.6,114,170.5,114z"/>
	<path style="fill-rule:evenodd;clip-rule:evenodd;fill:#CCCCCC;" d="M181.6,114l5.8,0c0.9,0,1.6,0.7,1.6,1.6l0,6
		c0,0.9-0.7,1.6-1.6,1.6l-5.8,0c-0.9,0-1.6-0.7-1.6-1.6l0-6C180,114.7,180.8,114,181.6,114z"/>
	<path style="fill-rule:evenodd;clip-rule:evenodd;fill:#CCCCCC;" d="M192.8,114l5.8,0c0.9,0,1.6,0.7,1.6,1.6l0,6
		c0,0.9-0.7,1.6-1.6,1.6l-5.8,0c-0.9,0-1.6-0.7-1.6-1.6l0-6C191.2,114.7,191.9,114,192.8,114z"/>
	<path style="fill-rule:evenodd;clip-rule:evenodd;fill:#CCCCCC;" d="M86.9,125l5.8,0c0.9,0,1.6,0.7,1.6,1.6l0,6
		c0,0.9-0.7,1.6-1.6,1.6l-5.8,0c-0.9,0-1.6-0.7-1.6-1.6l0-6C85.3,125.8,86,125,86.9,125z"/>
	<path style="fill-rule:evenodd;clip-rule:evenodd;fill:#CCCCCC;" d="M98.1,125l5.8,0c0.9,0,1.6,0.7,1.6,1.6l0,6
		c0,0.9-0.7,1.6-1.6,1.6l-5.8,0c-0.9,0-1.6-0.7-1.6-1.6l0-6C96.5,125.7,97.2,125,98.1,125z"/>
	<path style="fill-rule:evenodd;clip-rule:evenodd;fill:#CCCCCC;" d="M109.3,125l5.8,0c0.9,0,1.6,0.7,1.6,1.6l0,6
		c0,0.9-0.7,1.6-1.6,1.6l-5.8,0c-0.9,0-1.6-0.7-1.6-1.6l0-6C107.7,125.7,108.4,125,109.3,125z"/>
	<path style="fill-rule:evenodd;clip-rule:evenodd;fill:#CCCCCC;" d="M120.5,125l5.8,0c0.9,0,1.6,0.7,1.6,1.6l0,6
		c0,0.9-0.7,1.6-1.6,1.6l-5.8,0c-0.9,0-1.6-0.7-1.6-1.6l0-6C118.8,125.7,119.6,125,120.5,125z"/>
	<path style="fill-rule:evenodd;clip-rule:evenodd;fill:#CCCCCC;" d="M131.6,124.9l5.8,0c0.9,0,1.6,0.7,1.6,1.6l0,6
		c0,0.9-0.7,1.6-1.6,1.6l-5.8,0c-0.9,0-1.6-0.7-1.6-1.6l0-6C130,125.7,130.7,124.9,131.6,124.9z"/>
	<path style="fill-rule:evenodd;clip-rule:evenodd;fill:#CCCCCC;" d="M142.8,124.9l5.8,0c0.9,0,1.6,0.7,1.6,1.6l0,6
		c0,0.9-0.7,1.6-1.6,1.6l-5.8,0c-0.9,0-1.6-0.7-1.6-1.6l0-6C141.2,125.6,141.9,124.9,142.8,124.9z"/>
	<path style="fill-rule:evenodd;clip-rule:evenodd;fill:#CCCCCC;" d="M154,124.9l5.8,0c0.9,0,1.6,0.7,1.6,1.6l0,6
		c0,0.9-0.7,1.6-1.6,1.6l-5.8,0c-0.9,0-1.6-0.7-1.6-1.6l0-6C152.4,125.6,153.1,124.9,154,124.9z"/>
	<path style="fill-rule:evenodd;clip-rule:evenodd;fill:#CCCCCC;" d="M165.2,124.8l5.8,0c0.9,0,1.6,0.7,1.6,1.6l0,6
		c0,0.9-0.7,1.6-1.6,1.6l-5.8,0c-0.9,0-1.6-0.7-1.6-1.6l0-6C163.5,125.6,164.3,124.9,165.2,124.8z"/>
	<path style="fill-rule:evenodd;clip-rule:evenodd;fill:#CCCCCC;" d="M176.3,124.8l5.8,0c0.9,0,1.6,0.7,1.6,1.6l0,6
		c0,0.9-0.7,1.6-1.6,1.6l-5.8,0c-0.9,0-1.6-0.7-1.6-1.6l0-6C174.7,125.6,175.5,124.8,176.3,124.8z"/>
	<path style="fill-rule:evenodd;clip-rule:evenodd;fill:#CCCCCC;" d="M187.5,124.8l5.8,0c0.9,0,1.6,0.7,1.6,1.6l0,6
		c0,0.9-0.7,1.6-1.6,1.6l-5.8,0c-0.9,0-1.6-0.7-1.6-1.6l0-6C185.9,125.5,186.6,124.8,187.5,124.8z"/>
	<path style="fill-rule:evenodd;clip-rule:evenodd;fill:#CCCCCC;" d="M198.7,124.8l10.5,0c0.9,0,1.7,0.7,1.6,1.6l0,5.9
		c0,0.9-0.7,1.6-1.6,1.6l-10.5,0c-0.9,0-1.6-0.7-1.7-1.6l0-5.9C197.1,125.5,197.8,124.8,198.7,124.8z"/>
	<path style="fill-rule:evenodd;clip-rule:evenodd;fill:#CCCCCC;" d="M75.6,135.9l5.8,0c0.9,0,1.6,0.7,1.6,1.6l0,6
		c0,0.9-0.7,1.6-1.6,1.6l-5.8,0c-0.9,0-1.6-0.7-1.6-1.6l0-6C74,136.6,74.7,135.9,75.6,135.9z"/>
	<path style="fill-rule:evenodd;clip-rule:evenodd;fill:#CCCCCC;" d="M86.8,135.8l5.8,0c0.9,0,1.6,0.7,1.6,1.6l0,6
		c0,0.9-0.7,1.6-1.6,1.6l-5.8,0c-0.9,0-1.6-0.7-1.6-1.6l0-6C85.1,136.6,85.9,135.8,86.8,135.8z"/>
	<path style="fill-rule:evenodd;clip-rule:evenodd;fill:#CCCCCC;" d="M97.9,135.8l5.8,0c0.9,0,1.6,0.7,1.6,1.6l0,6
		c0,0.9-0.7,1.6-1.6,1.6l-5.8,0c-0.9,0-1.6-0.7-1.6-1.6l0-6C96.3,136.5,97,135.8,97.9,135.8z"/>
	<path style="fill-rule:evenodd;clip-rule:evenodd;fill:#CCCCCC;" d="M109.1,135.8l5.8,0c0.9,0,1.6,0.7,1.6,1.6l0,6
		c0,0.9-0.7,1.6-1.6,1.6l-5.8,0c-0.9,0-1.6-0.7-1.6-1.6l0-6C107.5,136.5,108.2,135.8,109.1,135.8z"/>
	<path style="fill-rule:evenodd;clip-rule:evenodd;fill:#CCCCCC;" d="M120.3,135.8l5.8,0c0.9,0,1.6,0.7,1.6,1.6l0,6
		c0,0.9-0.7,1.6-1.6,1.6l-5.8,0c-0.9,0-1.6-0.7-1.6-1.6l0-6C118.7,136.5,119.4,135.8,120.3,135.8z"/>
	<path style="fill-rule:evenodd;clip-rule:evenodd;fill:#CCCCCC;" d="M131.5,135.7l5.8,0c0.9,0,1.6,0.7,1.6,1.6l0,6
		c0,0.9-0.7,1.6-1.6,1.6l-5.8,0c-0.9,0-1.6-0.7-1.6-1.6l0-6C129.9,136.5,130.6,135.7,131.5,135.7z"/>
	<path style="fill-rule:evenodd;clip-rule:evenodd;fill:#CCCCCC;" d="M142.6,135.7l5.8,0c0.9,0,1.6,0.7,1.6,1.6l0,6
		c0,0.9-0.7,1.6-1.6,1.6l-5.8,0c-0.9,0-1.6-0.7-1.6-1.6l0-6C141,136.4,141.8,135.7,142.6,135.7z"/>
	<path style="fill-rule:evenodd;clip-rule:evenodd;fill:#CCCCCC;" d="M153.8,135.7l5.8,0c0.9,0,1.6,0.7,1.6,1.6l0,6
		c0,0.9-0.7,1.6-1.6,1.6l-5.8,0c-0.9,0-1.6-0.7-1.6-1.6l0-6C152.2,136.4,152.9,135.7,153.8,135.7z"/>
	<path style="fill-rule:evenodd;clip-rule:evenodd;fill:#CCCCCC;" d="M165,135.7l5.8,0c0.9,0,1.6,0.7,1.6,1.6l0,6
		c0,0.9-0.7,1.6-1.6,1.6l-5.8,0c-0.9,0-1.6-0.7-1.6-1.6l0-6C163.4,136.4,164.1,135.7,165,135.7z"/>
	<path style="fill-rule:evenodd;clip-rule:evenodd;fill:#CCCCCC;" d="M176.2,135.6l5.8,0c0.9,0,1.6,0.7,1.6,1.6l0,6
		c0,0.9-0.7,1.6-1.6,1.6l-5.8,0c-0.9,0-1.6-0.7-1.6-1.6l0-6C174.6,136.4,175.3,135.6,176.2,135.6z"/>
	<path style="fill-rule:evenodd;clip-rule:evenodd;fill:#CCCCCC;" d="M187.4,135.6l10.5,0c0.9,0,1.7,0.7,1.7,1.6l0,5.9
		c0,0.9-0.7,1.6-1.6,1.7l-10.5,0c-0.9,0-1.6-0.7-1.6-1.6l0-5.9C185.7,136.4,186.5,135.6,187.4,135.6z"/>
	<path style="fill-rule:evenodd;clip-rule:evenodd;fill:#CCCCCC;" d="M203.8,135.6l5.5,0c0.8,0,1.5,0.7,1.5,1.5l0,6.1
		c0,0.8-0.7,1.5-1.5,1.5l-5.5,0c-0.9,0-1.5-0.7-1.5-1.5l0-6.1C202.3,136.3,203,135.6,203.8,135.6z"/>
	<path style="fill-rule:evenodd;clip-rule:evenodd;fill:#CCCCCC;" d="M116.5,152.7l58.1-0.1c0.9,0,1.6,0.7,1.6,1.6l0.1,27.9
		c0,0.9-0.7,1.6-1.6,1.6l-58.1,0.1c-0.9,0-1.6-0.7-1.6-1.6l-0.1-27.9C114.9,153.5,115.6,152.8,116.5,152.7z"/>
	<path style="fill-rule:evenodd;clip-rule:evenodd;fill:#CCCCCC;" d="M115.3,186l28.9-0.1c0.2,0,0.3,0.1,0.3,0.3l0,5.8
		c0,0.2-0.1,0.3-0.3,0.3l-28.9,0.1c-0.2,0-0.3-0.2-0.3-0.3l0-5.8C115,186.1,115.1,186,115.3,186z"/>
	<path style="fill-rule:evenodd;clip-rule:evenodd;fill:#CCCCCC;" d="M147.1,185.9l28.9-0.1c0.2,0,0.3,0.1,0.3,0.3l0,5.8
		c0,0.2-0.2,0.3-0.3,0.3l-28.9,0.1c-0.2,0-0.3-0.2-0.3-0.3l0-5.8C146.7,186.1,146.9,185.9,147.1,185.9z"/>
	<g>
		<polygon style="fill:#104D7C;" points="248.6,24.1 41.4,24.6 39.1,17.4 250.9,16.9 		"/>
		<polygon style="fill:#A2D7E7;" points="243.8,39.2 46.2,39.6 41.4,24.6 248.6,24.1 		"/>
		<g>
			<g>
				<g>
					<polygon style="fill:#104D7C;" points="117.8,51 77.6,51.1 74.8,42 116.3,41.9 					"/>
				</g>
				<g>
					<polygon style="fill:#104D7C;" points="165.2,50.9 125,51 123.8,41.9 167.7,41.8 					"/>
				</g>
				<g>
					<polygon style="fill:#104D7C;" points="212.5,50.8 172.4,50.9 174.4,41.8 215.7,41.7 					"/>
				</g>
			</g>
		</g>
		<path style="fill:#E6E7E8;" d="M91.4,20.9c0-1.4-3.1-2.6-6.9-2.6c-3.8,0-6.9,1.2-6.9,2.6c0,1.4,3.1,2.6,6.9,2.6
			C88.3,23.5,91.4,22.3,91.4,20.9z"/>
		<g>
			
				<rect x="195.6" y="18.8" transform="matrix(-1 2.084405e-003 -2.084405e-003 -1 408.0685 39.5493)" style="fill:#E6E7E8;" width="16.9" height="2.4"/>
			
				<rect x="175.3" y="18.8" transform="matrix(-1 2.142102e-003 -2.142102e-003 -1 367.4732 39.6787)" style="fill:#E6E7E8;" width="16.9" height="2.4"/>
			
				<rect x="155" y="18.9" transform="matrix(-1 2.430826e-003 -2.430826e-003 -1 326.8853 39.7668)" style="fill:#E6E7E8;" width="16.9" height="2.4"/>
			
				<rect x="134.7" y="18.9" transform="matrix(-1 2.431064e-003 -2.431064e-003 -1 286.2849 39.9049)" style="fill:#E6E7E8;" width="16.9" height="2.4"/>
		</g>
		<polygon style="fill:#A7A9AC;" points="118,52.8 118.2,54.5 78.5,54.6 77.9,52.9 		"/>
		<polygon style="fill:#A7A9AC;" points="118.8,55.6 119,57.4 79.3,57.4 78.7,55.7 		"/>
		<polygon style="fill:#A7A9AC;" points="172.2,52.7 171.8,54.4 211.7,54.3 212.3,52.6 		"/>
		<polygon style="fill:#A7A9AC;" points="171.5,55.5 171.2,57.2 211,57.1 211.6,55.4 		"/>
		<polygon style="fill:#A7A9AC;" points="125.2,52.8 125.4,54.5 164.3,54.4 164.9,52.7 		"/>
		<polygon style="fill:#A7A9AC;" points="125.6,55.6 125.8,57.3 163.6,57.3 164.2,55.5 		"/>
	</g>
</g>
<g>
	<g>
		<g>
			<path style="fill:#3B8DE0;" d="M150.4,296c0,0-47.1,0.7-71.1-8.7c-24-9.4-18.3-73.2,9.8-117.9c-16.6-9-29-14.4-29-14.4
				s-43.9,80.5-45.5,116.1c-1.5,32,14.9,63.3,27.3,75.1c24.6,23.6,58.7,44.1,103.7,42.2C169.7,387.5,150.4,296,150.4,296z"/>
		</g>
	</g>
</g>
<g>
	<g>
		<g>
			<path style="fill:#3B8DE0;" d="M147.1,299.7c0,0,37.5,1.6,60.9-9c22.2-10.1,8.8-88.6-16.2-123.9c16.1-9.8,28.1-15.9,28.1-15.9
				s41.4,65.9,47.4,98.8c6,32.5,6.1,66.1-20,92.4c-22.9,23.1-73.9,49.8-108.5,46.1C114.9,385.5,147.1,299.7,147.1,299.7z"/>
		</g>
	</g>
</g>
<path style="fill:#16B9C0;" d="M72.8,282.7c14.4,7.7,10.5-50.5,10.5-50.5h115.3c0,0-2.8,65.9,12.6,56.2c11.6-7.3,1.8,54.5,1.8,54.5
	S98.4,378.8,62.3,328.6C26.2,278.4,72.8,282.7,72.8,282.7z"/>
<polyline style="fill:#FFFFFF;" points="113.6,308.5 138.1,232.2 167.4,308.5 "/>
<path style="fill:#FED7A5;" d="M213.1,154.3c0,0-6.7-15.4-5.2-19.5c3.2-9.1-4.2-31.8-9.9-36.2c-3.5-1.3,3,15.8,4.5,21.1
	c-2.9-8.7-10.9-26.9-14.3-26.7c-4.4,0.3,7.2,27.2,7.2,27.2s-13-29.3-16.2-27.9c-6,2.5,10,31.5,10,31.5s-10.7-17.9-12.5-22.6
	c-1.8-4.7-9.5-4-4.9,4.6c7.5,14.1,8.3,24.7,7.2,26.2c-1.1,1.5-7.3-1.1-8.8-6.2c-2.5-8-9.9-6.8-3.2,8.2c5.4,12.2,22,18.8,22,18.8
	l7.6,10.9L213.1,154.3z"/>
<path style="fill:#FED7A5;" d="M66.4,157.7c0,0,6.2-15.6,4.6-19.6c-3.5-9,3.2-31.9,8.8-36.5c3.5-1.4-2.5,15.9-3.8,21.3
	c2.6-8.8,10-27.3,13.5-27.2c4.4,0.1-6.3,27.4-6.3,27.4s12.1-29.7,15.3-28.4c6.1,2.3-9,31.8-9,31.8s10.1-18.2,11.7-23
	c1.6-4.8,9.3-4.3,5,4.5c-7.1,14.3-7.5,25-6.4,26.4c1.1,1.5,7.2-1.3,8.6-6.4c2.2-8.1,9.7-7.1,3.5,8.1c-5,12.4-21.3,19.5-21.3,19.5
	l-7.3,11.2L66.4,157.7z"/>
<g>
	<path style="fill:#FED7A5;" d="M92.1,304.1c0,21.5,21.2,38.9,47.4,38.9c26.2,0,47.4-17.4,47.4-38.9c0-21.5-21.2-38.9-47.4-38.9
		C113.3,265.1,92.1,282.6,92.1,304.1z"/>
	<path style="fill:#7D4827;" d="M179.8,278c-11.9-9.7-30-3.6-37.3-4c-7.2-0.4-25.6-11.2-40.5,0.4c-5.1,4-8.3,9-8.7,9.4
		c-8.2,11-13.1,24.9-13.2,40.1c-0.1,35.3,26.1,64,58.6,64.1c32.5,0.1,58.9-28.5,59-63.8C198,306.1,191,289.7,179.8,278L179.8,278z"
		/>
	<path style="fill:#673A1B;" d="M142.6,274c-1,0-2.1-0.3-3.5-0.6v114.7c32.4,0,58.7-28.5,58.8-63.8c0.1-18.2-6.9-34.6-18-46.3
		C168,268.4,149.8,274.4,142.6,274z"/>
</g>
</svg>
