<?xml version="1.0" encoding="utf-8"?>
<!-- Generator: Adobe Illustrator 16.0.0, SVG Export Plug-In . SVG Version: 6.00 Build 0)  -->
<!DOCTYPE svg PUBLIC "-//W3C//DTD SVG 1.1//EN" "http://www.w3.org/Graphics/SVG/1.1/DTD/svg11.dtd">
<svg version="1.1" xmlns="http://www.w3.org/2000/svg" xmlns:xlink="http://www.w3.org/1999/xlink" x="0px" y="0px" width="499.5px"
	 height="351px" viewBox="0 0 499.5 351" style="enable-background:new 0 0 499.5 351;" xml:space="preserve">
<g id="Background">
</g>
<g id="Objects_1_">
	<g>
		<path style="fill:#58595B;" d="M58.4,153.5c-3.7,0.6-6.7,3.7-6.7,6.8l-0.1,29.5c0,3.2,3,6.2,6.7,6.8l26.2,4.1
			c3.7,0.6,6.7-1.5,6.8-4.7l0.1-42c0-3.2-3-5.3-6.7-4.7L58.4,153.5z"/>
		<g>
			<path style="fill:#58595B;" d="M45.9,203.5c3.8-1.2,6.9-5.2,6.9-8.8l0.1-38.5c0-3.7-3.2-7.4-7.1-8.2l-24.2-5
				c-3.9-0.8-7.7,1.5-8.4,5.1l-3.9,20.7c-0.7,3.6-0.8,9.6-0.2,13.2l3.9,24.6c0.6,3.6,4.1,5.7,7.9,4.5L45.9,203.5z"/>
		</g>
	</g>
	<g>
		<path style="fill:#58595B;" d="M440.6,204.4c3.7-0.6,6.7-3.7,6.7-6.8l0.1-29.5c0-3.2-3-6.2-6.7-6.8l-26.2-4.1
			c-3.7-0.6-6.7,1.5-6.8,4.7l-0.1,42c0,3.2,3,5.3,6.7,4.7L440.6,204.4z"/>
		<g>
			<path style="fill:#58595B;" d="M453.2,154.3c-3.8,1.2-6.9,5.2-6.9,8.8l-0.1,38.5c0,3.7,3.2,7.4,7.1,8.2l24.2,5
				c3.9,0.8,7.7-1.5,8.4-5.1l3.9-20.7c0.7-3.6,0.8-9.6,0.2-13.2L486,151c-0.6-3.6-4.1-5.7-7.9-4.5L453.2,154.3z"/>
		</g>
	</g>
	<g>
		<path style="fill:#58595B;" d="M184,62.5c-0.6-3.7-3.7-6.7-6.8-6.7l-29.5-0.1c-3.2,0-6.2,3-6.8,6.7l-4.1,26.2
			c-0.6,3.7,1.5,6.7,4.7,6.8l42,0.1c3.2,0,5.3-3,4.7-6.7L184,62.5z"/>
		<g>
			<path style="fill:#58595B;" d="M134,49.9c1.2,3.8,5.2,6.9,8.8,6.9l38.5,0.1c3.7,0,7.4-3.2,8.2-7.1l5-24.2
				c0.8-3.9-1.5-7.7-5.1-8.4l-20.7-3.9c-3.6-0.7-9.6-0.8-13.2-0.2l-24.6,3.9c-3.6,0.6-5.7,4.1-4.5,7.9L134,49.9z"/>
		</g>
	</g>
	<g>
		<path style="fill:#58595B;" d="M323.9,62.5c-0.6-3.7-3.7-6.7-6.8-6.7l-29.5-0.1c-3.2,0-6.2,3-6.8,6.7l-4.1,26.2
			c-0.6,3.7,1.5,6.7,4.7,6.8l42,0.1c3.2,0,5.3-3,4.7-6.7L323.9,62.5z"/>
		<g>
			<path style="fill:#58595B;" d="M273.8,49.9c1.2,3.8,5.2,6.9,8.8,6.9l38.5,0.1c3.7,0,7.4-3.2,8.2-7.1l5-24.2
				c0.8-3.9-1.5-7.7-5.1-8.4l-20.7-3.9c-3.6-0.7-9.6-0.8-13.2-0.2l-24.6,3.9c-3.6,0.6-5.7,4.1-4.5,7.9L273.8,49.9z"/>
		</g>
	</g>
	<g>
		<path style="fill:#58595B;" d="M287.6,293.6c0.6,3.7,3.7,6.7,6.8,6.7l29.5,0.1c3.2,0,6.2-3,6.8-6.7l4.1-26.2
			c0.6-3.7-1.5-6.7-4.7-6.8l-42-0.1c-3.2,0-5.3,3-4.7,6.7L287.6,293.6z"/>
		<g>
			<path style="fill:#58595B;" d="M337.7,306.2c-1.2-3.8-5.2-6.9-8.8-6.9l-38.5-0.1c-3.7,0-7.4,3.2-8.2,7.1l-5,24.2
				c-0.8,3.9,1.5,7.7,5.1,8.4l20.7,3.9c3.6,0.7,9.6,0.8,13.2,0.2l24.6-3.9c3.6-0.6,5.7-4.1,4.5-7.9L337.7,306.2z"/>
		</g>
	</g>
	<g>
		<path style="fill:#58595B;" d="M165.1,293.6c0.6,3.7,3.7,6.7,6.8,6.7l29.5,0.1c3.2,0,6.2-3,6.8-6.7l4.1-26.2
			c0.6-3.7-1.5-6.7-4.7-6.8l-42-0.1c-3.2,0-5.3,3-4.7,6.7L165.1,293.6z"/>
		<g>
			<path style="fill:#58595B;" d="M215.1,306.2c-1.2-3.8-5.2-6.9-8.8-6.9l-38.5-0.1c-3.7,0-7.4,3.2-8.2,7.1l-5,24.2
				c-0.8,3.9,1.5,7.7,5.1,8.4l20.7,3.9c3.6,0.7,9.6,0.8,13.2,0.2l24.6-3.9c3.6-0.6,5.7-4.1,4.5-7.9L215.1,306.2z"/>
		</g>
	</g>
	<path id="table" style="fill:#D1D3D4;" d="M424.5,250c0,14.9-12.1,27-27,27h-296c-14.9,0-27-12.1-27-27V106c0-14.9,12.1-27,27-27
		h296c14.9,0,27,12.1,27,27V250z"/>
	<g id="ipad">
		<g>
			<path style="fill:#FFFFFF;" d="M193.3,136.1V97c0-1.6-1.3-2.8-2.8-2.8H139c-1.6,0-2.8,1.3-2.8,2.8v39.1c0,1.6,1.3,2.8,2.8,2.8
				h51.4C192,138.9,193.3,137.6,193.3,136.1z"/>
			<path style="fill:#2C465F;" d="M137.7,116.5c0-0.6,0.5-1.1,1.1-1.1c0.6,0,1.1,0.5,1.1,1.1s-0.5,1.1-1.1,1.1
				C138.2,117.7,137.7,117.2,137.7,116.5z"/>
			<circle style="fill:#2C465F;" cx="189.9" cy="116.5" r="0.6"/>
			<rect x="141.7" y="99.2" style="fill:#2C465F;" width="46.1" height="34.6"/>
		</g>
		<g>
			<g>
				<g>
					<polygon style="fill:#FEC00F;" points="182.8,112.7 183.9,114.2 170.2,124.3 161.2,118.2 147,128 145.9,126.4 161.2,115.9 
						170.1,122 					"/>
				</g>
				<g>
					<polygon style="fill:#FEC00F;" points="145.8,123.2 147.3,123.2 147.3,126.5 150.6,126.5 150.6,127.9 145.8,127.9 					"/>
				</g>
			</g>
			<circle style="fill:#15B0BF;" cx="161.4" cy="117.4" r="2.1"/>
			<circle style="fill:#15B0BF;" cx="170.1" cy="123.2" r="2.1"/>
		</g>
		<rect x="167.9" y="101.9" style="fill:#A6DAE9;" width="16.8" height="9.5"/>
		<g>
			<rect x="145.8" y="108.9" style="fill:#F07549;" width="19" height="2.6"/>
			<rect x="145.8" y="101.9" style="fill:#F07549;" width="19" height="2.6"/>
			<rect x="145.8" y="105.4" style="fill:#F07549;" width="19" height="2.6"/>
		</g>
	</g>
	<g id="coffee_4_">
		<circle style="fill:#F1F2F2;" cx="377.9" cy="106.8" r="15.2"/>
		<path style="fill:#FFFFFF;" d="M393.6,111c-0.1,0.4-0.4,0.8-0.8,1c-0.4,0.2-0.8,0.3-1.2,0.2l-4.8-1.3l0.9-3.2l4.8,1.3
			c0.4,0.1,0.8,0.4,1,0.8C393.6,110.2,393.7,110.6,393.6,111z"/>
		<path style="fill:#E0DEDC;" d="M387.7,107.7l-0.9,3.2l1.8,0.5c0.4-1,0.7-2.1,0.9-3.2L387.7,107.7z"/>
		<path style="fill:#FFFFFF;" d="M388.1,106.8c0,5.7-4.6,10.3-10.3,10.3c-5.7,0-10.3-4.6-10.3-10.3c0-5.7,4.6-10.3,10.3-10.3
			C383.6,96.5,388.1,101.1,388.1,106.8z"/>
		<circle style="fill:#8D4220;" cx="377.9" cy="106.8" r="8.6"/>
		<path style="fill:#512812;" d="M371.7,109.2c0-4.8,3.9-8.6,8.6-8.6c1.8,0,3.4,0.5,4.7,1.4c-1.5-2.3-4.2-3.9-7.2-3.9
			c-4.8,0-8.6,3.9-8.6,8.6c0,3,1.5,5.7,3.9,7.2C372.2,112.6,371.7,111,371.7,109.2z"/>
	</g>
	<g id="coffee_3_">
		<circle style="fill:#F1F2F2;" cx="230.1" cy="107.7" r="15.2"/>
		<path style="fill:#FFFFFF;" d="M214.4,103.4c0.1-0.4,0.4-0.8,0.8-1c0.4-0.2,0.8-0.3,1.2-0.2l4.8,1.3l-0.9,3.2l-4.8-1.3
			c-0.4-0.1-0.8-0.4-1-0.8C214.3,104.3,214.3,103.8,214.4,103.4z"/>
		<path style="fill:#E0DEDC;" d="M220.3,106.7l0.9-3.2l-1.8-0.5c-0.4,1-0.7,2.1-0.9,3.2L220.3,106.7z"/>
		<circle style="fill:#FFFFFF;" cx="230.1" cy="107.7" r="10.3"/>
		<circle style="fill:#C24824;" cx="230.1" cy="107.7" r="8.6"/>
		<path style="fill:#D75634;" d="M236.3,105.3c0,4.8-3.9,8.6-8.6,8.6c-1.8,0-3.4-0.5-4.7-1.4c1.5,2.3,4.2,3.9,7.2,3.9
			c4.8,0,8.6-3.9,8.6-8.6c0-3-1.5-5.7-3.9-7.2C235.7,101.9,236.3,103.5,236.3,105.3z"/>
	</g>
	<g id="coffee_2_">
		<circle style="fill:#F1F2F2;" cx="107.8" cy="113.2" r="15.2"/>
		<path style="fill:#FFFFFF;" d="M92.1,109c0.1-0.4,0.4-0.8,0.8-1c0.4-0.2,0.8-0.3,1.2-0.2l4.8,1.3l-0.9,3.2l-4.8-1.3
			c-0.4-0.1-0.8-0.4-1-0.8C92,109.8,92,109.4,92.1,109z"/>
		<path style="fill:#E0DEDC;" d="M98,112.3l0.9-3.2l-1.8-0.5c-0.4,1-0.7,2.1-0.9,3.2L98,112.3z"/>
		<circle style="fill:#FFFFFF;" cx="107.8" cy="113.2" r="10.3"/>
		<circle style="fill:#C24824;" cx="107.8" cy="113.2" r="8.6"/>
		<path style="fill:#D75634;" d="M113.9,110.8c0,4.8-3.9,8.6-8.6,8.6c-1.8,0-3.4-0.5-4.7-1.4c1.5,2.3,4.2,3.9,7.2,3.9
			c4.8,0,8.6-3.9,8.6-8.6c0-3-1.5-5.7-3.9-7.2C113.4,107.4,113.9,109,113.9,110.8z"/>
	</g>
	<g id="coffee_1_">
		<circle style="fill:#F1F2F2;" cx="377.6" cy="233.7" r="15.2"/>
		<path style="fill:#FFFFFF;" d="M393.3,238c-0.1,0.4-0.4,0.8-0.8,1c-0.4,0.2-0.8,0.3-1.2,0.2l-4.8-1.3l0.9-3.2l4.8,1.3
			c0.4,0.1,0.8,0.4,1,0.8C393.4,237.2,393.4,237.6,393.3,238z"/>
		<path style="fill:#E0DEDC;" d="M387.4,234.7l-0.9,3.2l1.8,0.5c0.4-1,0.7-2.1,0.9-3.2L387.4,234.7z"/>
		<circle style="fill:#FFFFFF;" cx="377.6" cy="233.7" r="10.3"/>
		<circle style="fill:#C24824;" cx="377.6" cy="233.7" r="8.6"/>
		<path style="fill:#D75634;" d="M371.4,236.2c0-4.8,3.9-8.6,8.6-8.6c1.8,0,3.4,0.5,4.7,1.4c-1.5-2.3-4.2-3.9-7.2-3.9
			c-4.8,0-8.6,3.9-8.6,8.6c0,3,1.5,5.7,3.9,7.2C372,239.6,371.4,238,371.4,236.2z"/>
	</g>
	<g id="coffee">
		<circle style="fill:#F1F2F2;" cx="114" cy="237.2" r="15.2"/>
		<path style="fill:#FFFFFF;" d="M129.6,241.5c-0.1,0.4-0.4,0.8-0.8,1c-0.4,0.2-0.8,0.3-1.2,0.2l-4.8-1.3l0.9-3.2l4.8,1.3
			c0.4,0.1,0.8,0.4,1,0.8C129.7,240.7,129.8,241.1,129.6,241.5z"/>
		<path style="fill:#E0DEDC;" d="M123.7,238.2l-0.9,3.2l1.8,0.5c0.4-1,0.7-2.1,0.9-3.2L123.7,238.2z"/>
		<circle style="fill:#FFFFFF;" cx="114" cy="237.2" r="10.3"/>
		<circle style="fill:#8D4220;" cx="114" cy="237.2" r="8.6"/>
		<path style="fill:#512812;" d="M107.8,239.7c0-4.8,3.9-8.6,8.6-8.6c1.8,0,3.4,0.5,4.7,1.4c-1.5-2.3-4.2-3.9-7.2-3.9
			c-4.8,0-8.6,3.9-8.6,8.6c0,3,1.5,5.7,3.9,7.2C108.3,243.1,107.8,241.5,107.8,239.7z"/>
	</g>
	<g id="book_open">
		<path style="fill:#2F4962;" d="M342.7,146.3c0,0.7-0.6,1.2-1.3,1.2h-74.9c-0.7,0-1.3-0.6-1.3-1.2V97.5c0-0.7,0.6-1.2,1.3-1.2h74.9
			c0.7,0,1.3,0.6,1.3,1.2V146.3z"/>
		<rect x="268.3" y="143" style="fill:#D1ECFB;" width="71.4" height="1.6"/>
		<path style="fill:#FFFFFF;" d="M304,144.6V99.2c0,0,0-0.1,0-0.1c0-0.1,0-0.3,0-0.4c0.2-2.3,2.1-4.1,4.5-4.1h31.2v48.9h-31.2
			C306.5,143.4,304.8,142.9,304,144.6z"/>
		<path style="fill:#FFFFFF;" d="M304,144.6l0-45.3c0,0,0-0.1,0-0.1c0-0.1,0-0.3,0-0.4c-0.2-2.3-2.1-4.1-4.5-4.1h-31.2v48.9h31.2
			C301.4,143.4,303.1,142.9,304,144.6z"/>
		<path style="fill:#D1ECFB;" d="M304,98.7c-0.1-1.6-1.1-3-2.5-3.7v48.6c0.4,0.1,2-0.1,2.5,1l0-45.3c0,0,0-0.1,0-0.1
			C304,99,304,98.8,304,98.7z"/>
		<g>
			<rect x="272.8" y="103.1" style="fill:#A6DAE9;" width="26.4" height="1.7"/>
			<rect x="272.8" y="109.2" style="fill:#A6DAE9;" width="26.4" height="1.7"/>
			<rect x="272.8" y="115.4" style="fill:#A6DAE9;" width="26.4" height="1.7"/>
			<rect x="272.8" y="121.5" style="fill:#A6DAE9;" width="26.4" height="1.7"/>
			<rect x="272.8" y="127.6" style="fill:#A6DAE9;" width="26.4" height="1.7"/>
			<rect x="272.8" y="133.8" style="fill:#A6DAE9;" width="26.4" height="1.7"/>
		</g>
		<g>
			<g>
				<circle style="fill:#39B54A;" cx="317.5" cy="127" r="4.4"/>
				<circle style="fill:#EE2A7B;" cx="320.6" cy="132.3" r="4.4"/>
				<path style="opacity:0.7;fill:#DA1C5C;" d="M316.4,131.2c0.3,0.1,0.7,0.1,1,0.1c2,0,3.7-1.4,4.2-3.3c-0.3-0.1-0.7-0.1-1-0.1
					C318.6,128,316.9,129.4,316.4,131.2z"/>
				<circle style="fill:#27AAE1;" cx="323.1" cy="127.7" r="4.4"/>
				<path style="opacity:0.7;fill:#662D91;" d="M323.1,132.1c0.7,0,1.3-0.2,1.9-0.4c-0.3-2.1-2.1-3.7-4.3-3.7
					c-0.7,0-1.3,0.2-1.9,0.4C319.1,130.5,320.9,132.1,323.1,132.1z"/>
				<path style="opacity:0.7;fill:#1C75BC;" d="M320.7,124.1c-1.2,0.8-2,2.1-2,3.7c0,1.1,0.4,2.1,1.1,2.9c1.2-0.8,2-2.1,2-3.7
					C321.8,125.9,321.4,124.9,320.7,124.1z"/>
			</g>
		</g>
		<g>
			<g>
				<circle style="fill:#39B54A;" cx="317.5" cy="105.4" r="4.4"/>
				<circle style="fill:#EE2A7B;" cx="320.6" cy="110.8" r="4.4"/>
				<path style="opacity:0.7;fill:#DA1C5C;" d="M316.4,109.7c0.3,0.1,0.7,0.1,1,0.1c2,0,3.7-1.4,4.2-3.3c-0.3-0.1-0.7-0.1-1-0.1
					C318.6,106.4,316.9,107.8,316.4,109.7z"/>
				<circle style="fill:#27AAE1;" cx="323.1" cy="106.2" r="4.4"/>
				<path style="opacity:0.7;fill:#662D91;" d="M323.1,110.5c0.7,0,1.3-0.2,1.9-0.4c-0.3-2.1-2.1-3.7-4.3-3.7
					c-0.7,0-1.3,0.2-1.9,0.4C319.1,108.9,320.9,110.5,323.1,110.5z"/>
				<path style="opacity:0.7;fill:#1C75BC;" d="M320.7,102.5c-1.2,0.8-2,2.1-2,3.7c0,1.1,0.4,2.1,1.1,2.9c1.2-0.8,2-2.1,2-3.7
					C321.8,104.3,321.4,103.3,320.7,102.5z"/>
			</g>
		</g>
	</g>
	<g id="notes">
		
			<rect x="201.4" y="139.6" transform="matrix(-0.8725 0.4887 -0.4887 -0.8725 465.9583 175.089)" style="fill-rule:evenodd;clip-rule:evenodd;fill:#FFCD61;" width="17.6" height="17.6"/>
		<polygon style="fill-rule:evenodd;clip-rule:evenodd;fill:#FFAE00;" points="219.2,146.6 222.1,151.7 218.8,153.6 		"/>
		<path style="fill-rule:evenodd;clip-rule:evenodd;fill:#FFEABD;" d="M219.2,146.6c-1,1.5-2.3,2.6-3.9,3.1c1.6,0.8,2.7,2.2,3.4,3.9
			L219.2,146.6z"/>
		
			<rect x="197.6" y="140.6" transform="matrix(-0.8725 0.4887 -0.4887 -0.8725 455.592 164.308)" style="fill-rule:evenodd;clip-rule:evenodd;fill:#F9A818;" width="17.6" height="2.1"/>
	</g>
	<g>
		<path style="fill-rule:evenodd;clip-rule:evenodd;fill:#FFFFFF;" d="M345.5,196.5l0-43.4l61.4,0l0,43.4L345.5,196.5z"/>
		<g>
			<polygon style="fill-rule:evenodd;clip-rule:evenodd;fill:#4C8EB4;" points="377.2,191.1 377.2,187.3 380.6,187.3 380.6,191.1 
							"/>
			<rect x="375.7" y="183" style="fill-rule:evenodd;clip-rule:evenodd;fill:#609DC1;" width="4.9" height="3.7"/>
			<rect x="372.3" y="178.7" style="fill-rule:evenodd;clip-rule:evenodd;fill:#73ACCD;" width="8.3" height="3.7"/>
			<rect x="373.5" y="174.3" style="fill-rule:evenodd;clip-rule:evenodd;fill:#87BBDA;" width="7.1" height="3.7"/>
			<rect x="377" y="170" style="fill-rule:evenodd;clip-rule:evenodd;fill:#9ACAE6;" width="3.6" height="3.7"/>
			<rect x="375.7" y="165.8" style="fill-rule:evenodd;clip-rule:evenodd;fill:#73ACCD;" width="4.9" height="3.7"/>
			<rect x="373.5" y="161.4" style="fill-rule:evenodd;clip-rule:evenodd;fill:#87BBDA;" width="7.1" height="3.7"/>
			<rect x="368.8" y="157.1" style="fill-rule:evenodd;clip-rule:evenodd;fill:#9ACAE6;" width="11.9" height="3.7"/>
		</g>
		
			<rect x="378.1" y="183.9" transform="matrix(-6.008585e-004 1 -1 -6.008585e-004 570.8634 -201.667)" style="fill-rule:evenodd;clip-rule:evenodd;fill:#CCCCCC;" width="16.3" height="1.1"/>
		
			<rect x="380" y="183.9" transform="matrix(-5.407771e-004 1 -1 -5.407771e-004 572.7308 -203.5657)" style="fill-rule:evenodd;clip-rule:evenodd;fill:#CCCCCC;" width="16.3" height="1.1"/>
		
			<rect x="381.9" y="183.9" transform="matrix(-4.806955e-004 1 -1 -4.806955e-004 574.6015 -205.466)" style="fill-rule:evenodd;clip-rule:evenodd;fill:#CCCCCC;" width="16.3" height="1.1"/>
		
			<rect x="383.7" y="183.9" transform="matrix(-4.206141e-004 1 -1 -4.206141e-004 576.469 -207.3672)" style="fill-rule:evenodd;clip-rule:evenodd;fill:#CCCCCC;" width="16.3" height="1.1"/>
		
			<rect x="385.6" y="183.9" transform="matrix(-6.007393e-004 1 -1 -6.007393e-004 578.4308 -209.2212)" style="fill-rule:evenodd;clip-rule:evenodd;fill:#CCCCCC;" width="16.3" height="1.1"/>
		
			<rect x="387.5" y="183.9" transform="matrix(-6.008585e-004 1 -1 -6.008585e-004 580.3231 -211.1113)" style="fill-rule:evenodd;clip-rule:evenodd;fill:#CCCCCC;" width="16.3" height="1.1"/>
		
			<rect x="389.4" y="183.9" transform="matrix(-4.204948e-004 1 -1 -4.204948e-004 582.1451 -213.0323)" style="fill-rule:evenodd;clip-rule:evenodd;fill:#CCCCCC;" width="16.3" height="1.1"/>
		<rect x="398.9" y="184.4" style="fill-rule:evenodd;clip-rule:evenodd;fill:#CCCCCC;" width="1.1" height="8.1"/>
		
			<rect x="378.1" y="164.7" transform="matrix(-4.206141e-004 1 -1 -4.206141e-004 551.6419 -220.8816)" style="fill-rule:evenodd;clip-rule:evenodd;fill:#CCCCCC;" width="16.3" height="1.1"/>
		
			<rect x="380" y="164.7" transform="matrix(-5.406578e-004 1 -1 -5.406578e-004 553.58 -222.7495)" style="fill-rule:evenodd;clip-rule:evenodd;fill:#CCCCCC;" width="16.3" height="1.1"/>
		
			<rect x="381.9" y="164.7" transform="matrix(-5.407771e-004 1 -1 -5.407771e-004 555.4726 -224.6391)" style="fill-rule:evenodd;clip-rule:evenodd;fill:#CCCCCC;" width="16.3" height="1.1"/>
		
			<rect x="383.8" y="164.7" transform="matrix(-6.008585e-004 1 -1 -6.008585e-004 557.3871 -226.5176)" style="fill-rule:evenodd;clip-rule:evenodd;fill:#CCCCCC;" width="16.3" height="1.1"/>
		
			<rect x="385.6" y="164.7" transform="matrix(-6.609400e-004 1 -1 -6.609400e-004 559.3019 -228.3968)" style="fill-rule:evenodd;clip-rule:evenodd;fill:#CCCCCC;" width="16.3" height="1.1"/>
		
			<rect x="387.5" y="164.7" transform="matrix(-5.407771e-004 1 -1 -5.407771e-004 561.1478 -230.3058)" style="fill-rule:evenodd;clip-rule:evenodd;fill:#CCCCCC;" width="16.3" height="1.1"/>
		
			<rect x="389.4" y="164.7" transform="matrix(-5.407771e-004 1 -1 -5.407771e-004 563.0397 -232.1933)" style="fill-rule:evenodd;clip-rule:evenodd;fill:#CCCCCC;" width="16.3" height="1.1"/>
		
			<rect x="393.7" y="167.1" transform="matrix(-6.828745e-004 1 -1 -6.828745e-004 567.3936 -231.6503)" style="fill-rule:evenodd;clip-rule:evenodd;fill:#CCCCCC;" width="11.4" height="1.1"/>
		<g>
			<g>
				<polygon style="fill:#FEC00F;" points="366,190.2 364.6,191.2 355.5,178.8 361,170.8 352.2,158 353.6,157 363,170.8 
					357.5,178.8 				"/>
			</g>
			<g>
				<polygon style="fill:#FEC00F;" points="356.5,156.9 356.5,158.2 353.5,158.2 353.5,161.2 352.2,161.2 352.2,156.9 				"/>
			</g>
		</g>
		<circle style="fill:#15B0BF;" cx="361.7" cy="170.9" r="1.8"/>
		<circle style="fill:#15B0BF;" cx="356.5" cy="178.8" r="1.8"/>
	</g>
	<g id="phone">
		<path style="fill:#FFFFFF;" d="M395.8,131.2c0.4,0,0.8,0.3,0.8,0.8l0,15.2c0,0.4-0.3,0.8-0.8,0.8l-28.8,0c-0.4,0-0.8-0.3-0.8-0.8
			l0-15.2c0-0.4,0.3-0.8,0.8-0.8L395.8,131.2z"/>
		
			<rect x="373.6" y="127.7" transform="matrix(-8.731324e-004 -1 1 -8.731324e-004 242.1776 521.1279)" style="fill:#003E57;" width="15.7" height="23.8"/>
		<circle style="fill:#003E57;" cx="394.8" cy="139.6" r="1"/>
		<circle style="fill:#003E57;" cx="367.9" cy="139.6" r="0.4"/>
	</g>
	<g id="phone_1_">
		<path style="fill:#FFFFFF;" d="M236.9,129.1c0-0.4,0.3-0.8,0.8-0.8l15.2,0c0.4,0,0.8,0.3,0.8,0.8l0,28.8c0,0.4-0.3,0.8-0.8,0.8
			l-15.2,0c-0.4,0-0.8-0.3-0.8-0.8L236.9,129.1z"/>
		
			<rect x="237.5" y="131.7" transform="matrix(-1 8.420069e-004 -8.420069e-004 -1 490.6931 286.9404)" style="fill:#003E57;" width="15.7" height="23.8"/>
		<circle style="fill:#003E57;" cx="245.3" cy="130.2" r="1"/>
		<circle style="fill:#003E57;" cx="245.3" cy="157.1" r="0.4"/>
	</g>
	<g id="paper">
		<g>
			<rect x="178" y="190.5" style="fill:#FFFFFF;" width="41.9" height="60.5"/>
			<g>
				<circle style="fill:#39B54A;" cx="203.8" cy="225.9" r="7.7"/>
				<circle style="fill:#EE2A7B;" cx="198.3" cy="216.5" r="7.7"/>
				<path style="opacity:0.7;fill:#DA1C5C;" d="M205.7,218.4c-0.6-0.1-1.2-0.2-1.9-0.2c-3.6,0-6.6,2.4-7.4,5.7
					c0.6,0.1,1.2,0.2,1.9,0.2C201.8,224.1,204.8,221.7,205.7,218.4z"/>
				<circle style="fill:#27AAE1;" cx="194" cy="224.6" r="7.7"/>
				<path style="opacity:0.7;fill:#662D91;" d="M194,216.9c-1.2,0-2.3,0.3-3.3,0.7c0.6,3.7,3.7,6.5,7.6,6.5c1.2,0,2.3-0.3,3.3-0.7
					C201,219.7,197.8,216.9,194,216.9z"/>
				<path style="opacity:0.7;fill:#1C75BC;" d="M198.1,231c2.1-1.4,3.5-3.7,3.5-6.4c0-2-0.8-3.8-2-5.1c-2.1,1.4-3.5,3.7-3.5,6.4
					C196.2,227.8,196.9,229.6,198.1,231z"/>
			</g>
			<rect x="184.1" y="194.6" style="fill:#E6E7E8;" width="29.7" height="3.2"/>
			<rect x="184.1" y="200.9" style="fill:#E6E7E8;" width="29.7" height="3.2"/>
			<rect x="184.1" y="241.3" style="fill:#E6E7E8;" width="29.7" height="3.2"/>
		</g>
		<g>
			<path style="fill-rule:evenodd;clip-rule:evenodd;fill:#FFFFFF;" d="M152.8,200l43.4,0l0,61.3l-43.4,0L152.8,200z"/>
			<g>
				<polygon style="fill-rule:evenodd;clip-rule:evenodd;fill:#4C8EB4;" points="158.3,231.7 162,231.7 162,235.1 158.3,235.1 				
					"/>
				<rect x="162.6" y="230.3" style="fill-rule:evenodd;clip-rule:evenodd;fill:#609DC1;" width="3.7" height="4.9"/>
				<rect x="166.9" y="226.9" style="fill-rule:evenodd;clip-rule:evenodd;fill:#73ACCD;" width="3.7" height="8.3"/>
				<rect x="171.3" y="228" style="fill-rule:evenodd;clip-rule:evenodd;fill:#87BBDA;" width="3.7" height="7.1"/>
				<rect x="175.6" y="231.6" style="fill-rule:evenodd;clip-rule:evenodd;fill:#9ACAE6;" width="3.7" height="3.6"/>
				<rect x="179.8" y="230.2" style="fill-rule:evenodd;clip-rule:evenodd;fill:#73ACCD;" width="3.7" height="4.9"/>
				<rect x="184.2" y="228" style="fill-rule:evenodd;clip-rule:evenodd;fill:#87BBDA;" width="3.7" height="7.1"/>
				<rect x="188.5" y="223.3" style="fill-rule:evenodd;clip-rule:evenodd;fill:#9ACAE6;" width="3.7" height="11.9"/>
			</g>
			
				<rect x="156.8" y="240.2" transform="matrix(-1 -4.805644e-004 4.805644e-004 -1 329.7432 481.5529)" style="fill-rule:evenodd;clip-rule:evenodd;fill:#CCCCCC;" width="16.3" height="1.1"/>
			
				<rect x="156.8" y="242.1" transform="matrix(-1 -6.007273e-004 6.007273e-004 -1 329.7112 485.3481)" style="fill-rule:evenodd;clip-rule:evenodd;fill:#CCCCCC;" width="16.3" height="1.1"/>
			
				<rect x="156.8" y="244" transform="matrix(-1 -6.007273e-004 6.007273e-004 -1 329.7076 489.1293)" style="fill-rule:evenodd;clip-rule:evenodd;fill:#CCCCCC;" width="16.3" height="1.1"/>
			
				<rect x="156.8" y="245.9" transform="matrix(-1 -4.805644e-004 4.805644e-004 -1 329.7356 492.8907)" style="fill-rule:evenodd;clip-rule:evenodd;fill:#CCCCCC;" width="16.3" height="1.1"/>
			
				<rect x="156.8" y="247.8" transform="matrix(-1 -6.608088e-004 6.608088e-004 -1 329.6874 496.6988)" style="fill-rule:evenodd;clip-rule:evenodd;fill:#CCCCCC;" width="16.3" height="1.1"/>
			
				<rect x="156.8" y="249.6" transform="matrix(-1 -6.007273e-004 6.007273e-004 -1 329.6993 500.4691)" style="fill-rule:evenodd;clip-rule:evenodd;fill:#CCCCCC;" width="16.3" height="1.1"/>
			
				<rect x="156.8" y="251.5" transform="matrix(-1 -4.805644e-004 4.805644e-004 -1 329.725 504.2325)" style="fill-rule:evenodd;clip-rule:evenodd;fill:#CCCCCC;" width="16.3" height="1.1"/>
			<rect x="156.8" y="253.4" style="fill-rule:evenodd;clip-rule:evenodd;fill:#CCCCCC;" width="8.1" height="1.1"/>
			
				<rect x="176" y="240.2" transform="matrix(-1 -4.805644e-004 4.805644e-004 -1 368.0698 481.5836)" style="fill-rule:evenodd;clip-rule:evenodd;fill:#CCCCCC;" width="16.3" height="1.1"/>
			
				<rect x="176" y="242.1" transform="matrix(-1 -5.406459e-004 5.406459e-004 -1 368.0509 485.3729)" style="fill-rule:evenodd;clip-rule:evenodd;fill:#CCCCCC;" width="16.3" height="1.1"/>
			
				<rect x="176" y="244" transform="matrix(-1 -6.009658e-004 6.009658e-004 -1 368.0337 489.1633)" style="fill-rule:evenodd;clip-rule:evenodd;fill:#CCCCCC;" width="16.3" height="1.1"/>
			
				<rect x="176" y="245.9" transform="matrix(-1 -5.406459e-004 5.406459e-004 -1 368.045 492.9325)" style="fill-rule:evenodd;clip-rule:evenodd;fill:#CCCCCC;" width="16.3" height="1.1"/>
			
				<rect x="176" y="247.8" transform="matrix(-1 -6.608088e-004 6.608088e-004 -1 368.0131 496.7319)" style="fill-rule:evenodd;clip-rule:evenodd;fill:#CCCCCC;" width="16.3" height="1.1"/>
			
				<rect x="176" y="249.7" transform="matrix(-1 -6.007273e-004 6.007273e-004 -1 368.024 500.5021)" style="fill-rule:evenodd;clip-rule:evenodd;fill:#CCCCCC;" width="16.3" height="1.1"/>
			
				<rect x="176" y="251.5" transform="matrix(-1 -5.406459e-004 5.406459e-004 -1 368.0346 504.2704)" style="fill-rule:evenodd;clip-rule:evenodd;fill:#CCCCCC;" width="16.3" height="1.1"/>
			
				<rect x="176" y="253.4" transform="matrix(-1 -6.827433e-004 6.827433e-004 -1 363.184 508.0732)" style="fill-rule:evenodd;clip-rule:evenodd;fill:#CCCCCC;" width="11.4" height="1.1"/>
			<g>
				<g>
					<polygon style="fill:#FEC00F;" points="159.1,220.5 158.1,219.1 170.5,210 178.6,215.5 191.4,206.7 192.3,208.1 178.6,217.5 
						170.6,212.1 					"/>
				</g>
				<g>
					<polygon style="fill:#FEC00F;" points="192.5,211 191.1,211 191.1,208.1 188.2,208.1 188.2,206.7 192.5,206.7 					"/>
				</g>
			</g>
			<circle style="fill:#15B0BF;" cx="178.4" cy="216.2" r="1.8"/>
			<circle style="fill:#15B0BF;" cx="170.6" cy="211" r="1.8"/>
		</g>
	</g>
	<g id="men_5_">
		<g>
			<g>
				<g>
					<g>
						<path style="fill:#2F4962;" d="M190.5,301.4c0,0-18,0.3-27.2-3.3c-9.2-3.6-7-28,3.7-45c-6.3-3.4-11.1-5.5-11.1-5.5
							s-16.8,30.8-17.4,44.3c-0.6,12.2,5.7,24.2,10.4,28.7c9.4,9,22.4,16.8,39.6,16.1C197.9,336.3,190.5,301.4,190.5,301.4z"/>
					</g>
				</g>
			</g>
			<g>
				<g>
					<path style="fill:#FED7A5;" d="M214.5,247.8l-3.9-7.8l-2-10.6c0,0-6-4.5-7.1-5.2c-1.2-0.8-1.6-0.4-2.4,0
						c-0.7,0.4-4.9,2.9-5.5,3.3c-0.6,0.3-0.9,0.6-0.9,1.2c0,0.6,0,1.8,0,2.1c0,0.3,1,1.2,1.4-0.1c0.4-1.3,0.4-1.3,0.4-1.3l4.5-1.9
						l3.5,4.7l0,3.7l-1,9l6.3,6.5L214.5,247.8z"/>
					<path style="fill:#FED7A5;" d="M207.9,231.1c0,0-3.2-3.9-4.4-4.7c-1.2-0.8-1.6-0.4-2.4,0c-0.7,0.4-4.9,2.9-5.5,3.3
						c-0.6,0.3-0.9,0.6-0.9,1.2s0,1.8,0,2.1c0,0.3,1,1.2,1.5-0.1c0.4-1.3,0.4-1.3,0.4-1.3l4.5-1.9l3.5,4.7"/>
					<g>
						<g>
							<g>
								<g>
									<path style="fill:#12232B;" d="M207.5,219.4l-1.1-1.1l-0.5-0.5l-16.2,16.4l0,0l-0.5,1.5l0,0l-0.5,1.5l1.5-0.5c0,0,0,0,0,0
										l1.5-0.5c0,0,0,0,0,0l16.2-16.4L207.5,219.4z M192,235.1c-0.2,0.3-0.4,0.6-0.3,0.9C191.7,235.7,191.8,235.4,192,235.1z
										 M191.7,236L191.7,236L191.7,236z"/>
								</g>
							</g>
							<g>
								<polygon style="fill:#12232B;" points="208.4,218.4 207.3,217.3 206.8,216.8 205.9,217.8 206.4,218.2 207.5,219.4 
									208,219.8 208.9,218.9 								"/>
							</g>
						</g>
					</g>
					<path style="fill:#FED7A5;" d="M201.6,244.8c0,0-3.1-2.8-4.1-5.7c-1.1-2.9-3.1-8.9-3.1-8.9s-0.4-2,0.8-2.3
						c1.2-0.4,2.5,2.3,2.5,2.3s1.5,5.8,5.5,6.2C204.6,237.8,201.6,244.8,201.6,244.8z"/>
				</g>
				<g>
					<g>
						<g>
							<path style="fill:#2F4962;" d="M189.2,302.8c0,0,14.3,0.6,23.3-3.5c8.5-3.9,3.3-33.9-6.2-47.3c6.1-3.8,10.7-6.1,10.7-6.1
								s15.8,25.2,18.1,37.7c2.3,12.4,2.3,25.2-7.6,35.3c-8.7,8.8-28.2,19-41.4,17.6C176.9,335.6,189.2,302.8,189.2,302.8z"/>
						</g>
					</g>
				</g>
				<path style="fill:#2F4962;" d="M160.9,296.3c5.5,3,4-19.3,4-19.3h44.1c0,0-1.1,25.2,4.8,21.5c4.4-2.8,0.7,20.8,0.7,20.8
					s-43.8,13.7-57.6-5.5C143,294.7,160.9,296.3,160.9,296.3z"/>
				<polyline style="fill:#ABACAE;" points="176.4,306.2 185.8,277 197,306.2 				"/>
			</g>
			<path style="fill:#FED7A5;" d="M158.4,248.6c0,0,2.4-6,1.8-7.5c-1.3-3.4,1.2-12.2,3.4-13.9c1.3-0.5-1,6.1-1.5,8.1
				c1-3.4,3.8-10.4,5.1-10.4c1.7,0-2.4,10.5-2.4,10.5s4.6-11.3,5.9-10.9c2.3,0.9-3.5,12.1-3.5,12.1s3.9-7,4.5-8.8
				c0.6-1.8,3.6-1.6,1.9,1.7c-2.7,5.5-2.9,9.5-2.4,10.1c0.4,0.6,2.8-0.5,3.3-2.5c0.8-3.1,3.7-2.7,1.3,3.1c-1.9,4.7-8.2,7.5-8.2,7.5
				l-2.8,4.3L158.4,248.6z"/>
		</g>
		<g>
			<ellipse style="fill:#FED7A5;" cx="186.3" cy="304.5" rx="18.1" ry="14.9"/>
			<path style="fill:#FA9D22;" d="M201.7,294.5c-4.5-3.7-11.5-1.4-14.2-1.5c-2.8-0.1-9.8-4.3-15.5,0.2c-1.9,1.5-3.2,3.4-3.3,3.6
				c-3.1,4.2-5,9.5-5,15.3c0,13.5,10,24.5,22.4,24.5c12.4,0,22.5-10.9,22.5-24.4C208.7,305.3,206,299,201.7,294.5L201.7,294.5z"/>
			<path style="fill:#F4781F;" d="M187.5,293c-0.4,0-0.8-0.1-1.3-0.2v43.8c12.4,0,22.4-10.9,22.5-24.4c0-6.9-2.6-13.2-6.9-17.7
				C197.2,290.8,190.3,293.2,187.5,293z"/>
		</g>
	</g>
	<g id="computer">
		<path style="fill-rule:evenodd;clip-rule:evenodd;fill:#FFFFFF;" d="M275,213.7l72.1-0.2c0.9,0,1.7,0.8,1.7,1.7L349,262
			c0,0.9-0.8,1.7-1.7,1.7l-72.1,0.2c-0.9,0-1.7-0.8-1.7-1.7l-0.1-46.8C273.4,214.5,274.1,213.8,275,213.7z"/>
		<path style="fill-rule:evenodd;clip-rule:evenodd;fill:#B3B3B3;" d="M278.3,213.7l4.2,0l0,2.4c0,0.2-0.2,0.4-0.4,0.4l-3.4,0
			c-0.2,0-0.4-0.2-0.4-0.4L278.3,213.7z"/>
		<path style="fill-rule:evenodd;clip-rule:evenodd;fill:#B3B3B3;" d="M339.7,213.6l4.2,0l0,2.4c0,0.2-0.2,0.4-0.4,0.4l-3.4,0
			c-0.2,0-0.4-0.2-0.4-0.4L339.7,213.6z"/>
		<path style="fill-rule:evenodd;clip-rule:evenodd;fill:#CCCCCC;" d="M268,191.6l85.9-0.2c2.1,0,2.7,1,1.9,2.3l-7.1,19.1l-75.3,0.2
			l-6.4-17.9C265.5,192.8,265.7,191.6,268,191.6z"/>
		<polygon style="fill-rule:evenodd;clip-rule:evenodd;fill:#FFFFFF;" points="351.4,194.8 346.2,211.2 275.9,211.4 270.5,195 		"/>
		<path style="fill-rule:evenodd;clip-rule:evenodd;fill:#FFFFFF;" d="M267.6,191.9l87.1-0.2c0.2,0,0.3,0.2,0.3,0.3l0,0
			c0,0.2-0.2,0.3-0.3,0.3l-87.1,0.2c-0.2,0-0.3-0.2-0.3-0.3l0,0C267.2,192,267.4,191.9,267.6,191.9z"/>
		<path style="fill-rule:evenodd;clip-rule:evenodd;fill:#FFFFFF;" d="M278.9,211.6l3,0c0.2,0,0.3,0.2,0.3,0.3l0,3.5
			c0,0.2-0.2,0.3-0.3,0.3l-3,0c-0.2,0-0.3-0.2-0.3-0.3l0-3.5C278.6,211.7,278.7,211.6,278.9,211.6z"/>
		<path style="fill-rule:evenodd;clip-rule:evenodd;fill:#FFFFFF;" d="M340.3,211.4l3,0c0.2,0,0.3,0.2,0.3,0.3l0,3.5
			c0,0.2-0.2,0.3-0.3,0.3l-3,0c-0.2,0-0.3-0.2-0.3-0.3l0-3.5C340,211.6,340.1,211.4,340.3,211.4z"/>
		<path style="fill-rule:evenodd;clip-rule:evenodd;fill:#CCCCCC;" d="M341.5,220.3l2.3,0c0.3,0,0.5,0.2,0.5,0.5l0,1.7
			c0,0.3-0.2,0.5-0.5,0.5l-2.3,0c-0.3,0-0.5-0.2-0.5-0.5l0-1.7C341.1,220.5,341.3,220.3,341.5,220.3z"/>
		<path style="fill-rule:evenodd;clip-rule:evenodd;fill:#CCCCCC;" d="M341.6,223.6l2.1,0c0.3,0,0.6,0.3,0.6,0.6l0,2.3
			c0,0.3-0.3,0.6-0.6,0.6l-2.1,0c-0.3,0-0.6-0.3-0.6-0.6l0-2.3C341.1,223.8,341.3,223.6,341.6,223.6z"/>
		<path style="fill-rule:evenodd;clip-rule:evenodd;fill:#CCCCCC;" d="M341.7,227.7l2.1,0c0.3,0,0.6,0.3,0.6,0.6l0,2.3
			c0,0.3-0.3,0.6-0.6,0.6l-2.1,0c-0.3,0-0.6-0.3-0.6-0.6l0-2.3C341.1,228,341.3,227.7,341.7,227.7z"/>
		<path style="fill-rule:evenodd;clip-rule:evenodd;fill:#CCCCCC;" d="M341.7,231.8l2.1,0c0.3,0,0.6,0.3,0.6,0.6l0,2.3
			c0,0.3-0.3,0.6-0.6,0.6l-2.1,0c-0.3,0-0.6-0.3-0.6-0.6l0-2.3C341.1,232.1,341.3,231.8,341.7,231.8z"/>
		<path style="fill-rule:evenodd;clip-rule:evenodd;fill:#CCCCCC;" d="M341.7,236l2.1,0c0.3,0,0.6,0.3,0.6,0.6l0,2.3
			c0,0.3-0.3,0.6-0.6,0.6l-2.1,0c-0.3,0-0.6-0.3-0.6-0.6l0-2.3C341.1,236.2,341.4,236,341.7,236z"/>
		<path style="fill-rule:evenodd;clip-rule:evenodd;fill:#CCCCCC;" d="M341.7,240.1l2.1,0c0.3,0,0.6,0.3,0.6,0.6l0,2.3
			c0,0.3-0.3,0.6-0.6,0.6l-2.1,0c-0.3,0-0.6-0.3-0.6-0.6l0-2.3C341.1,240.4,341.4,240.1,341.7,240.1z"/>
		<path style="fill-rule:evenodd;clip-rule:evenodd;fill:#CCCCCC;" d="M337.4,220.3l2.3,0c0.3,0,0.5,0.2,0.5,0.5l0,1.7
			c0,0.3-0.2,0.5-0.5,0.5l-2.3,0c-0.3,0-0.5-0.2-0.5-0.5l0-1.7C336.9,220.5,337.2,220.3,337.4,220.3z"/>
		<path style="fill-rule:evenodd;clip-rule:evenodd;fill:#CCCCCC;" d="M333.8,223.6l5.8,0c0.3,0,0.6,0.3,0.6,0.6l0,2.3
			c0,0.3-0.3,0.6-0.6,0.6l-5.8,0c-0.3,0-0.6-0.3-0.6-0.6l0-2.3C333.1,223.9,333.4,223.6,333.8,223.6z"/>
		<path style="fill-rule:evenodd;clip-rule:evenodd;fill:#CCCCCC;" d="M336.5,227.7l3.2,0c0.3,0,0.6,0.3,0.6,0.6l0,2.3
			c0,0.3-0.3,0.6-0.6,0.6l-3.2,0c-0.3,0-0.6-0.3-0.6-0.6l0-2.3C335.8,228,336.1,227.7,336.5,227.7z"/>
		<path style="fill-rule:evenodd;clip-rule:evenodd;fill:#CCCCCC;" d="M333.3,231.9l6.3,0c0.3,0,0.6,0.3,0.6,0.6l0,2.3
			c0,0.3-0.3,0.6-0.6,0.6l-6.3,0c-0.3,0-0.6-0.3-0.6-0.6l0-2.3C332.7,232.1,333,231.9,333.3,231.9z"/>
		<path style="fill-rule:evenodd;clip-rule:evenodd;fill:#CCCCCC;" d="M337.6,236l2.1,0c0.3,0,0.6,0.3,0.6,0.6l0,2.3
			c0,0.3-0.3,0.6-0.6,0.6l-2.1,0c-0.3,0-0.6-0.3-0.6-0.6l0-2.3C337,236.2,337.2,236,337.6,236z"/>
		<path style="fill-rule:evenodd;clip-rule:evenodd;fill:#CCCCCC;" d="M337.6,240.1l2.1,0c0.3,0,0.6,0.3,0.6,0.6l0,2.3
			c0,0.3-0.3,0.6-0.6,0.6l-2.1,0c-0.3,0-0.6-0.3-0.6-0.6l0-2.3C337,240.4,337.2,240.1,337.6,240.1z"/>
		<path style="fill-rule:evenodd;clip-rule:evenodd;fill:#CCCCCC;" d="M333.6,220.3l2,0c0.3,0,0.5,0.2,0.5,0.5l0,1.7
			c0,0.3-0.2,0.5-0.5,0.5l-2,0c-0.3,0-0.5-0.2-0.5-0.5l0-1.7C333.1,220.5,333.4,220.3,333.6,220.3z"/>
		<path style="fill-rule:evenodd;clip-rule:evenodd;fill:#CCCCCC;" d="M329.8,220.3l2,0c0.3,0,0.5,0.2,0.5,0.5l0,1.7
			c0,0.3-0.2,0.5-0.5,0.5l-2,0c-0.3,0-0.5-0.2-0.5-0.5l0-1.7C329.3,220.5,329.5,220.3,329.8,220.3z"/>
		<path style="fill-rule:evenodd;clip-rule:evenodd;fill:#CCCCCC;" d="M325.9,220.3l2,0c0.3,0,0.5,0.2,0.5,0.5l0,1.7
			c0,0.3-0.2,0.5-0.5,0.5l-2,0c-0.3,0-0.5-0.2-0.5-0.5l0-1.7C325.4,220.5,325.6,220.3,325.9,220.3z"/>
		<path style="fill-rule:evenodd;clip-rule:evenodd;fill:#CCCCCC;" d="M322,220.3l2,0c0.3,0,0.5,0.2,0.5,0.5l0,1.7
			c0,0.3-0.2,0.5-0.5,0.5l-2,0c-0.3,0-0.5-0.2-0.5-0.5l0-1.7C321.5,220.5,321.8,220.3,322,220.3z"/>
		<path style="fill-rule:evenodd;clip-rule:evenodd;fill:#CCCCCC;" d="M318.2,220.3l2,0c0.3,0,0.5,0.2,0.5,0.5l0,1.7
			c0,0.3-0.2,0.5-0.5,0.5l-2,0c-0.3,0-0.5-0.2-0.5-0.5l0-1.7C317.7,220.5,317.9,220.3,318.2,220.3z"/>
		<path style="fill-rule:evenodd;clip-rule:evenodd;fill:#CCCCCC;" d="M314.3,220.3l2,0c0.3,0,0.5,0.2,0.5,0.5l0,1.7
			c0,0.3-0.2,0.5-0.5,0.5l-2,0c-0.3,0-0.5-0.2-0.5-0.5l0-1.7C313.8,220.6,314,220.3,314.3,220.3z"/>
		<path style="fill-rule:evenodd;clip-rule:evenodd;fill:#CCCCCC;" d="M310.4,220.3l2,0c0.3,0,0.5,0.2,0.5,0.5l0,1.7
			c0,0.3-0.2,0.5-0.5,0.5l-2,0c-0.3,0-0.5-0.2-0.5-0.5l0-1.7C310,220.6,310.2,220.3,310.4,220.3z"/>
		<path style="fill-rule:evenodd;clip-rule:evenodd;fill:#CCCCCC;" d="M306.6,220.4l2,0c0.3,0,0.5,0.2,0.5,0.5l0,1.7
			c0,0.3-0.2,0.5-0.5,0.5l-2,0c-0.3,0-0.5-0.2-0.5-0.5l0-1.7C306.1,220.6,306.3,220.4,306.6,220.4z"/>
		<path style="fill-rule:evenodd;clip-rule:evenodd;fill:#CCCCCC;" d="M302.7,220.4l2,0c0.3,0,0.5,0.2,0.5,0.5l0,1.7
			c0,0.3-0.2,0.5-0.5,0.5l-2,0c-0.3,0-0.5-0.2-0.5-0.5l0-1.7C302.2,220.6,302.4,220.4,302.7,220.4z"/>
		<path style="fill-rule:evenodd;clip-rule:evenodd;fill:#CCCCCC;" d="M298.8,220.4l2,0c0.3,0,0.5,0.2,0.5,0.5l0,1.7
			c0,0.3-0.2,0.5-0.5,0.5l-2,0c-0.3,0-0.5-0.2-0.5-0.5l0-1.7C298.4,220.6,298.6,220.4,298.8,220.4z"/>
		<path style="fill-rule:evenodd;clip-rule:evenodd;fill:#CCCCCC;" d="M295,220.4l2,0c0.3,0,0.5,0.2,0.5,0.5l0,1.7
			c0,0.3-0.2,0.5-0.5,0.5l-2,0c-0.3,0-0.5-0.2-0.5-0.5l0-1.7C294.5,220.6,294.7,220.4,295,220.4z"/>
		<path style="fill-rule:evenodd;clip-rule:evenodd;fill:#CCCCCC;" d="M291.1,220.4l2,0c0.3,0,0.5,0.2,0.5,0.5l0,1.7
			c0,0.3-0.2,0.5-0.5,0.5l-2,0c-0.3,0-0.5-0.2-0.5-0.5l0-1.7C290.6,220.6,290.9,220.4,291.1,220.4z"/>
		<path style="fill-rule:evenodd;clip-rule:evenodd;fill:#CCCCCC;" d="M287.3,220.4l2,0c0.3,0,0.5,0.2,0.5,0.5l0,1.7
			c0,0.3-0.2,0.5-0.5,0.5l-2,0c-0.3,0-0.5-0.2-0.5-0.5l0-1.7C286.8,220.6,287,220.4,287.3,220.4z"/>
		<path style="fill-rule:evenodd;clip-rule:evenodd;fill:#CCCCCC;" d="M283.4,220.4l2,0c0.3,0,0.5,0.2,0.5,0.5l0,1.7
			c0,0.3-0.2,0.5-0.5,0.5l-2,0c-0.3,0-0.5-0.2-0.5-0.5l0-1.7C282.9,220.6,283.1,220.4,283.4,220.4z"/>
		<path style="fill-rule:evenodd;clip-rule:evenodd;fill:#CCCCCC;" d="M279.1,220.4l2.3,0c0.3,0,0.5,0.2,0.5,0.5l0,1.7
			c0,0.3-0.2,0.5-0.5,0.5l-2.3,0c-0.3,0-0.5-0.2-0.5-0.5l0-1.7C278.6,220.6,278.8,220.4,279.1,220.4z"/>
		<path style="fill-rule:evenodd;clip-rule:evenodd;fill:#CCCCCC;" d="M329.6,223.6l2.1,0c0.3,0,0.6,0.3,0.6,0.6l0,2.4
			c0,0.3-0.3,0.6-0.6,0.6l-2.1,0c-0.3,0-0.6-0.3-0.6-0.6l0-2.4C329,223.9,329.3,223.6,329.6,223.6z"/>
		<path style="fill-rule:evenodd;clip-rule:evenodd;fill:#CCCCCC;" d="M325.4,223.6l2.1,0c0.3,0,0.6,0.3,0.6,0.6l0,2.4
			c0,0.3-0.3,0.6-0.6,0.6l-2.1,0c-0.3,0-0.6-0.3-0.6-0.6l0-2.4C324.8,223.9,325.1,223.6,325.4,223.6z"/>
		<path style="fill-rule:evenodd;clip-rule:evenodd;fill:#CCCCCC;" d="M321.2,223.6l2.1,0c0.3,0,0.6,0.3,0.6,0.6l0,2.4
			c0,0.3-0.3,0.6-0.6,0.6l-2.1,0c-0.3,0-0.6-0.3-0.6-0.6l0-2.4C320.6,223.9,320.9,223.6,321.2,223.6z"/>
		<path style="fill-rule:evenodd;clip-rule:evenodd;fill:#CCCCCC;" d="M317,223.6l2.1,0c0.3,0,0.6,0.3,0.6,0.6l0,2.4
			c0,0.3-0.3,0.6-0.6,0.6l-2.1,0c-0.3,0-0.6-0.3-0.6-0.6l0-2.4C316.5,223.9,316.7,223.6,317,223.6z"/>
		<path style="fill-rule:evenodd;clip-rule:evenodd;fill:#CCCCCC;" d="M312.8,223.6l2.1,0c0.3,0,0.6,0.3,0.6,0.6l0,2.4
			c0,0.3-0.3,0.6-0.6,0.6l-2.1,0c-0.3,0-0.6-0.3-0.6-0.6l0-2.4C312.3,223.9,312.5,223.6,312.8,223.6z"/>
		<path style="fill-rule:evenodd;clip-rule:evenodd;fill:#CCCCCC;" d="M308.6,223.7l2.1,0c0.3,0,0.6,0.3,0.6,0.6l0,2.4
			c0,0.3-0.3,0.6-0.6,0.6l-2.1,0c-0.3,0-0.6-0.3-0.6-0.6l0-2.4C308.1,223.9,308.3,223.7,308.6,223.7z"/>
		<path style="fill-rule:evenodd;clip-rule:evenodd;fill:#CCCCCC;" d="M304.5,223.7l2.1,0c0.3,0,0.6,0.3,0.6,0.6l0,2.4
			c0,0.3-0.3,0.6-0.6,0.6l-2.1,0c-0.3,0-0.6-0.3-0.6-0.6l0-2.4C303.9,223.9,304.1,223.7,304.5,223.7z"/>
		<path style="fill-rule:evenodd;clip-rule:evenodd;fill:#CCCCCC;" d="M300.3,223.7l2.1,0c0.3,0,0.6,0.3,0.6,0.6l0,2.4
			c0,0.3-0.3,0.6-0.6,0.6l-2.1,0c-0.3,0-0.6-0.3-0.6-0.6l0-2.4C299.7,223.9,299.9,223.7,300.3,223.7z"/>
		<path style="fill-rule:evenodd;clip-rule:evenodd;fill:#CCCCCC;" d="M296.1,223.7l2.1,0c0.3,0,0.6,0.3,0.6,0.6l0,2.4
			c0,0.3-0.3,0.6-0.6,0.6l-2.1,0c-0.3,0-0.6-0.3-0.6-0.6l0-2.4C295.5,223.9,295.8,223.7,296.1,223.7z"/>
		<path style="fill-rule:evenodd;clip-rule:evenodd;fill:#CCCCCC;" d="M291.9,223.7l2.1,0c0.3,0,0.6,0.3,0.6,0.6l0,2.4
			c0,0.3-0.3,0.6-0.6,0.6l-2.1,0c-0.3,0-0.6-0.3-0.6-0.6l0-2.4C291.3,224,291.6,223.7,291.9,223.7z"/>
		<path style="fill-rule:evenodd;clip-rule:evenodd;fill:#CCCCCC;" d="M287.7,223.7l2.1,0c0.3,0,0.6,0.3,0.6,0.6l0,2.4
			c0,0.3-0.3,0.6-0.6,0.6l-2.1,0c-0.3,0-0.6-0.3-0.6-0.6l0-2.4C287.1,224,287.4,223.7,287.7,223.7z"/>
		<path style="fill-rule:evenodd;clip-rule:evenodd;fill:#CCCCCC;" d="M283.5,223.7l2.1,0c0.3,0,0.6,0.3,0.6,0.6l0,2.4
			c0,0.3-0.3,0.6-0.6,0.6l-2.1,0c-0.3,0-0.6-0.3-0.6-0.6l0-2.4C282.9,224,283.2,223.7,283.5,223.7z"/>
		<path style="fill-rule:evenodd;clip-rule:evenodd;fill:#CCCCCC;" d="M279.2,223.7l2.1,0c0.3,0,0.6,0.3,0.6,0.6l0,2.3
			c0,0.3-0.3,0.6-0.6,0.6l-2.1,0c-0.3,0-0.6-0.3-0.6-0.6l0-2.3C278.6,224,278.8,223.7,279.2,223.7z"/>
		<path style="fill-rule:evenodd;clip-rule:evenodd;fill:#CCCCCC;" d="M279.2,227.9l4.4,0c0.3,0,0.6,0.3,0.6,0.6l0,2.3
			c0,0.3-0.3,0.6-0.6,0.6l-4.4,0c-0.3,0-0.6-0.3-0.6-0.6l0-2.3C278.6,228.1,278.9,227.9,279.2,227.9z"/>
		<path style="fill-rule:evenodd;clip-rule:evenodd;fill:#CCCCCC;" d="M279.2,232l5.2,0c0.3,0,0.6,0.3,0.6,0.6l0,2.3
			c0,0.3-0.3,0.6-0.6,0.6l-5.2,0c-0.3,0-0.6-0.3-0.6-0.6l0-2.3C278.6,232.3,278.9,232,279.2,232z"/>
		<path style="fill-rule:evenodd;clip-rule:evenodd;fill:#CCCCCC;" d="M279.2,236.1l7.4,0c0.3,0,0.6,0.3,0.6,0.6l0,2.3
			c0,0.3-0.3,0.6-0.6,0.6l-7.4,0c-0.3,0-0.6-0.3-0.6-0.6l0-2.3C278.6,236.4,278.9,236.1,279.2,236.1z"/>
		<path style="fill-rule:evenodd;clip-rule:evenodd;fill:#CCCCCC;" d="M279.2,240.2l3.1,0c0.3,0,0.6,0.3,0.6,0.6l0,2.3
			c0,0.3-0.3,0.6-0.6,0.6l-3.1,0c-0.3,0-0.6-0.3-0.6-0.6l0-2.3C278.6,240.5,278.9,240.2,279.2,240.2z"/>
		<path style="fill-rule:evenodd;clip-rule:evenodd;fill:#CCCCCC;" d="M285.3,227.8l2.2,0c0.3,0,0.6,0.3,0.6,0.6l0,2.3
			c0,0.3-0.3,0.6-0.6,0.6l-2.2,0c-0.3,0-0.6-0.3-0.6-0.6l0-2.3C284.7,228.1,285,227.8,285.3,227.8z"/>
		<path style="fill-rule:evenodd;clip-rule:evenodd;fill:#CCCCCC;" d="M289.6,227.8l2.2,0c0.3,0,0.6,0.3,0.6,0.6l0,2.3
			c0,0.3-0.3,0.6-0.6,0.6l-2.2,0c-0.3,0-0.6-0.3-0.6-0.6l0-2.3C289,228.1,289.3,227.8,289.6,227.8z"/>
		<path style="fill-rule:evenodd;clip-rule:evenodd;fill:#CCCCCC;" d="M293.9,227.8l2.2,0c0.3,0,0.6,0.3,0.6,0.6l0,2.3
			c0,0.3-0.3,0.6-0.6,0.6l-2.2,0c-0.3,0-0.6-0.3-0.6-0.6l0-2.3C293.3,228.1,293.5,227.8,293.9,227.8z"/>
		<path style="fill-rule:evenodd;clip-rule:evenodd;fill:#CCCCCC;" d="M298.2,227.8l2.2,0c0.3,0,0.6,0.3,0.6,0.6l0,2.3
			c0,0.3-0.3,0.6-0.6,0.6l-2.2,0c-0.3,0-0.6-0.3-0.6-0.6l0-2.3C297.5,228.1,297.8,227.8,298.2,227.8z"/>
		<path style="fill-rule:evenodd;clip-rule:evenodd;fill:#CCCCCC;" d="M302.4,227.8l2.2,0c0.3,0,0.6,0.3,0.6,0.6l0,2.3
			c0,0.3-0.3,0.6-0.6,0.6l-2.2,0c-0.3,0-0.6-0.3-0.6-0.6l0-2.3C301.8,228.1,302.1,227.8,302.4,227.8z"/>
		<path style="fill-rule:evenodd;clip-rule:evenodd;fill:#CCCCCC;" d="M306.7,227.8l2.2,0c0.3,0,0.6,0.3,0.6,0.6l0,2.3
			c0,0.3-0.3,0.6-0.6,0.6l-2.2,0c-0.3,0-0.6-0.3-0.6-0.6l0-2.3C306.1,228.1,306.4,227.8,306.7,227.8z"/>
		<path style="fill-rule:evenodd;clip-rule:evenodd;fill:#CCCCCC;" d="M311,227.8l2.2,0c0.3,0,0.6,0.3,0.6,0.6l0,2.3
			c0,0.3-0.3,0.6-0.6,0.6l-2.2,0c-0.3,0-0.6-0.3-0.6-0.6l0-2.3C310.3,228.1,310.6,227.8,311,227.8z"/>
		<path style="fill-rule:evenodd;clip-rule:evenodd;fill:#CCCCCC;" d="M315.2,227.8l2.2,0c0.3,0,0.6,0.3,0.6,0.6l0,2.3
			c0,0.3-0.3,0.6-0.6,0.6l-2.2,0c-0.3,0-0.6-0.3-0.6-0.6l0-2.3C314.6,228,314.9,227.8,315.2,227.8z"/>
		<path style="fill-rule:evenodd;clip-rule:evenodd;fill:#CCCCCC;" d="M319.5,227.8l2.2,0c0.3,0,0.6,0.3,0.6,0.6l0,2.3
			c0,0.3-0.3,0.6-0.6,0.6l-2.2,0c-0.3,0-0.6-0.3-0.6-0.6l0-2.3C318.9,228,319.2,227.8,319.5,227.8z"/>
		<path style="fill-rule:evenodd;clip-rule:evenodd;fill:#CCCCCC;" d="M323.8,227.8l2.2,0c0.3,0,0.6,0.3,0.6,0.6l0,2.3
			c0,0.3-0.3,0.6-0.6,0.6l-2.2,0c-0.3,0-0.6-0.3-0.6-0.6l0-2.3C323.2,228,323.4,227.8,323.8,227.8z"/>
		<path style="fill-rule:evenodd;clip-rule:evenodd;fill:#CCCCCC;" d="M328,227.7l2.2,0c0.3,0,0.6,0.3,0.6,0.6l0,2.3
			c0,0.3-0.3,0.6-0.6,0.6l-2.2,0c-0.3,0-0.6-0.3-0.6-0.6l0-2.3C327.4,228,327.7,227.7,328,227.7z"/>
		<path style="fill-rule:evenodd;clip-rule:evenodd;fill:#CCCCCC;" d="M332.3,227.7l2.2,0c0.3,0,0.6,0.3,0.6,0.6l0,2.3
			c0,0.3-0.3,0.6-0.6,0.6l-2.2,0c-0.3,0-0.6-0.3-0.6-0.6l0-2.3C331.7,228,332,227.7,332.3,227.7z"/>
		<path style="fill-rule:evenodd;clip-rule:evenodd;fill:#CCCCCC;" d="M286.5,232l2.2,0c0.3,0,0.6,0.3,0.6,0.6l0,2.3
			c0,0.3-0.3,0.6-0.6,0.6l-2.2,0c-0.3,0-0.6-0.3-0.6-0.6l0-2.3C285.9,232.2,286.2,232,286.5,232z"/>
		<path style="fill-rule:evenodd;clip-rule:evenodd;fill:#CCCCCC;" d="M290.8,232l2.2,0c0.3,0,0.6,0.3,0.6,0.6l0,2.3
			c0,0.3-0.3,0.6-0.6,0.6l-2.2,0c-0.3,0-0.6-0.3-0.6-0.6l0-2.3C290.2,232.2,290.5,232,290.8,232z"/>
		<path style="fill-rule:evenodd;clip-rule:evenodd;fill:#CCCCCC;" d="M295.1,231.9l2.2,0c0.3,0,0.6,0.3,0.6,0.6l0,2.3
			c0,0.3-0.3,0.6-0.6,0.6l-2.2,0c-0.3,0-0.6-0.3-0.6-0.6l0-2.3C294.5,232.2,294.7,231.9,295.1,231.9z"/>
		<path style="fill-rule:evenodd;clip-rule:evenodd;fill:#CCCCCC;" d="M299.4,231.9l2.2,0c0.3,0,0.6,0.3,0.6,0.6l0,2.3
			c0,0.3-0.3,0.6-0.6,0.6l-2.2,0c-0.3,0-0.6-0.3-0.6-0.6l0-2.3C298.7,232.2,299,231.9,299.4,231.9z"/>
		<path style="fill-rule:evenodd;clip-rule:evenodd;fill:#CCCCCC;" d="M303.6,231.9l2.2,0c0.3,0,0.6,0.3,0.6,0.6l0,2.3
			c0,0.3-0.3,0.6-0.6,0.6l-2.2,0c-0.3,0-0.6-0.3-0.6-0.6l0-2.3C303,232.2,303.3,231.9,303.6,231.9z"/>
		<path style="fill-rule:evenodd;clip-rule:evenodd;fill:#CCCCCC;" d="M307.9,231.9l2.2,0c0.3,0,0.6,0.3,0.6,0.6l0,2.3
			c0,0.3-0.3,0.6-0.6,0.6l-2.2,0c-0.3,0-0.6-0.3-0.6-0.6l0-2.3C307.3,232.2,307.6,231.9,307.9,231.9z"/>
		<path style="fill-rule:evenodd;clip-rule:evenodd;fill:#CCCCCC;" d="M312.2,231.9l2.2,0c0.3,0,0.6,0.3,0.6,0.6l0,2.3
			c0,0.3-0.3,0.6-0.6,0.6l-2.2,0c-0.3,0-0.6-0.3-0.6-0.6l0-2.3C311.5,232.2,311.8,231.9,312.2,231.9z"/>
		<path style="fill-rule:evenodd;clip-rule:evenodd;fill:#CCCCCC;" d="M316.4,231.9l2.2,0c0.3,0,0.6,0.3,0.6,0.6l0,2.3
			c0,0.3-0.3,0.6-0.6,0.6l-2.2,0c-0.3,0-0.6-0.3-0.6-0.6l0-2.3C315.8,232.2,316.1,231.9,316.4,231.9z"/>
		<path style="fill-rule:evenodd;clip-rule:evenodd;fill:#CCCCCC;" d="M320.7,231.9l2.2,0c0.3,0,0.6,0.3,0.6,0.6l0,2.3
			c0,0.3-0.3,0.6-0.6,0.6l-2.2,0c-0.3,0-0.6-0.3-0.6-0.6l0-2.3C320.1,232.2,320.4,231.9,320.7,231.9z"/>
		<path style="fill-rule:evenodd;clip-rule:evenodd;fill:#CCCCCC;" d="M325,231.9l2.2,0c0.3,0,0.6,0.3,0.6,0.6l0,2.3
			c0,0.3-0.3,0.6-0.6,0.6l-2.2,0c-0.3,0-0.6-0.3-0.6-0.6l0-2.3C324.4,232.2,324.6,231.9,325,231.9z"/>
		<path style="fill-rule:evenodd;clip-rule:evenodd;fill:#CCCCCC;" d="M329.2,231.9l2.2,0c0.3,0,0.6,0.3,0.6,0.6l0,2.3
			c0,0.3-0.3,0.6-0.6,0.6l-2.2,0c-0.3,0-0.6-0.3-0.6-0.6l0-2.3C328.6,232.1,328.9,231.9,329.2,231.9z"/>
		<path style="fill-rule:evenodd;clip-rule:evenodd;fill:#CCCCCC;" d="M288.8,236.1l2.2,0c0.3,0,0.6,0.3,0.6,0.6l0,2.3
			c0,0.3-0.3,0.6-0.6,0.6l-2.2,0c-0.3,0-0.6-0.3-0.6-0.6l0-2.3C288.2,236.4,288.4,236.1,288.8,236.1z"/>
		<path style="fill-rule:evenodd;clip-rule:evenodd;fill:#CCCCCC;" d="M293.1,236.1l2.2,0c0.3,0,0.6,0.3,0.6,0.6l0,2.3
			c0,0.3-0.3,0.6-0.6,0.6l-2.2,0c-0.3,0-0.6-0.3-0.6-0.6l0-2.3C292.4,236.4,292.7,236.1,293.1,236.1z"/>
		<path style="fill-rule:evenodd;clip-rule:evenodd;fill:#CCCCCC;" d="M297.3,236.1l2.2,0c0.3,0,0.6,0.3,0.6,0.6l0,2.3
			c0,0.3-0.3,0.6-0.6,0.6l-2.2,0c-0.3,0-0.6-0.3-0.6-0.6l0-2.3C296.7,236.4,297,236.1,297.3,236.1z"/>
		<path style="fill-rule:evenodd;clip-rule:evenodd;fill:#CCCCCC;" d="M301.6,236.1l2.2,0c0.3,0,0.6,0.3,0.6,0.6l0,2.3
			c0,0.3-0.3,0.6-0.6,0.6l-2.2,0c-0.3,0-0.6-0.3-0.6-0.6l0-2.3C301,236.3,301.3,236.1,301.6,236.1z"/>
		<path style="fill-rule:evenodd;clip-rule:evenodd;fill:#CCCCCC;" d="M305.9,236.1l2.2,0c0.3,0,0.6,0.3,0.6,0.6l0,2.3
			c0,0.3-0.3,0.6-0.6,0.6l-2.2,0c-0.3,0-0.6-0.3-0.6-0.6l0-2.3C305.2,236.3,305.5,236.1,305.9,236.1z"/>
		<path style="fill-rule:evenodd;clip-rule:evenodd;fill:#CCCCCC;" d="M310.1,236l2.2,0c0.3,0,0.6,0.3,0.6,0.6l0,2.3
			c0,0.3-0.3,0.6-0.6,0.6l-2.2,0c-0.3,0-0.6-0.3-0.6-0.6l0-2.3C309.5,236.3,309.8,236,310.1,236z"/>
		<path style="fill-rule:evenodd;clip-rule:evenodd;fill:#CCCCCC;" d="M314.4,236l2.2,0c0.3,0,0.6,0.3,0.6,0.6l0,2.3
			c0,0.3-0.3,0.6-0.6,0.6l-2.2,0c-0.3,0-0.6-0.3-0.6-0.6l0-2.3C313.8,236.3,314.1,236,314.4,236z"/>
		<path style="fill-rule:evenodd;clip-rule:evenodd;fill:#CCCCCC;" d="M318.7,236l2.2,0c0.3,0,0.6,0.3,0.6,0.6l0,2.3
			c0,0.3-0.3,0.6-0.6,0.6l-2.2,0c-0.3,0-0.6-0.3-0.6-0.6l0-2.3C318.1,236.3,318.3,236,318.7,236z"/>
		<path style="fill-rule:evenodd;clip-rule:evenodd;fill:#CCCCCC;" d="M322.9,236l2.2,0c0.3,0,0.6,0.3,0.6,0.6l0,2.3
			c0,0.3-0.3,0.6-0.6,0.6l-2.2,0c-0.3,0-0.6-0.3-0.6-0.6l0-2.3C322.3,236.3,322.6,236,322.9,236z"/>
		<path style="fill-rule:evenodd;clip-rule:evenodd;fill:#CCCCCC;" d="M327.2,236l2.2,0c0.3,0,0.6,0.3,0.6,0.6l0,2.3
			c0,0.3-0.3,0.6-0.6,0.6l-2.2,0c-0.3,0-0.6-0.3-0.6-0.6l0-2.3C326.6,236.3,326.9,236,327.2,236z"/>
		<path style="fill-rule:evenodd;clip-rule:evenodd;fill:#CCCCCC;" d="M331.5,236l4,0c0.3,0,0.6,0.3,0.6,0.6l0,2.3
			c0,0.3-0.3,0.6-0.6,0.6l-4,0c-0.3,0-0.6-0.3-0.6-0.6l0-2.3C330.9,236.3,331.2,236,331.5,236z"/>
		<path style="fill-rule:evenodd;clip-rule:evenodd;fill:#CCCCCC;" d="M284.5,240.2l2.2,0c0.3,0,0.6,0.3,0.6,0.6l0,2.3
			c0,0.3-0.3,0.6-0.6,0.6l-2.2,0c-0.3,0-0.6-0.3-0.6-0.6l0-2.3C283.8,240.5,284.1,240.2,284.5,240.2z"/>
		<path style="fill-rule:evenodd;clip-rule:evenodd;fill:#CCCCCC;" d="M288.7,240.2l2.2,0c0.3,0,0.6,0.3,0.6,0.6l0,2.3
			c0,0.3-0.3,0.6-0.6,0.6l-2.2,0c-0.3,0-0.6-0.3-0.6-0.6l0-2.3C288.1,240.5,288.4,240.2,288.7,240.2z"/>
		<path style="fill-rule:evenodd;clip-rule:evenodd;fill:#CCCCCC;" d="M293,240.2l2.2,0c0.3,0,0.6,0.3,0.6,0.6l0,2.3
			c0,0.3-0.3,0.6-0.6,0.6l-2.2,0c-0.3,0-0.6-0.3-0.6-0.6l0-2.3C292.4,240.5,292.7,240.2,293,240.2z"/>
		<path style="fill-rule:evenodd;clip-rule:evenodd;fill:#CCCCCC;" d="M297.3,240.2l2.2,0c0.3,0,0.6,0.3,0.6,0.6l0,2.3
			c0,0.3-0.3,0.6-0.6,0.6l-2.2,0c-0.3,0-0.6-0.3-0.6-0.6l0-2.3C296.6,240.5,296.9,240.2,297.3,240.2z"/>
		<path style="fill-rule:evenodd;clip-rule:evenodd;fill:#CCCCCC;" d="M301.5,240.2l2.2,0c0.3,0,0.6,0.3,0.6,0.6l0,2.3
			c0,0.3-0.3,0.6-0.6,0.6l-2.2,0c-0.3,0-0.6-0.3-0.6-0.6l0-2.3C300.9,240.5,301.2,240.2,301.5,240.2z"/>
		<path style="fill-rule:evenodd;clip-rule:evenodd;fill:#CCCCCC;" d="M305.8,240.2l2.2,0c0.3,0,0.6,0.3,0.6,0.6l0,2.3
			c0,0.3-0.3,0.6-0.6,0.6l-2.2,0c-0.3,0-0.6-0.3-0.6-0.6l0-2.3C305.2,240.5,305.5,240.2,305.8,240.2z"/>
		<path style="fill-rule:evenodd;clip-rule:evenodd;fill:#CCCCCC;" d="M310.1,240.2l2.2,0c0.3,0,0.6,0.3,0.6,0.6l0,2.3
			c0,0.3-0.3,0.6-0.6,0.6l-2.2,0c-0.3,0-0.6-0.3-0.6-0.6l0-2.3C309.5,240.5,309.7,240.2,310.1,240.2z"/>
		<path style="fill-rule:evenodd;clip-rule:evenodd;fill:#CCCCCC;" d="M314.3,240.2l2.2,0c0.3,0,0.6,0.3,0.6,0.6l0,2.3
			c0,0.3-0.3,0.6-0.6,0.6l-2.2,0c-0.3,0-0.6-0.3-0.6-0.6l0-2.3C313.7,240.4,314,240.2,314.3,240.2z"/>
		<path style="fill-rule:evenodd;clip-rule:evenodd;fill:#CCCCCC;" d="M318.6,240.2l2.2,0c0.3,0,0.6,0.3,0.6,0.6l0,2.3
			c0,0.3-0.3,0.6-0.6,0.6l-2.2,0c-0.3,0-0.6-0.3-0.6-0.6l0-2.3C318,240.4,318.3,240.2,318.6,240.2z"/>
		<path style="fill-rule:evenodd;clip-rule:evenodd;fill:#CCCCCC;" d="M322.9,240.1l2.2,0c0.3,0,0.6,0.3,0.6,0.6l0,2.3
			c0,0.3-0.3,0.6-0.6,0.6l-2.2,0c-0.3,0-0.6-0.3-0.6-0.6l0-2.3C322.3,240.4,322.5,240.1,322.9,240.1z"/>
		<path style="fill-rule:evenodd;clip-rule:evenodd;fill:#CCCCCC;" d="M327.2,240.1l4,0c0.3,0,0.6,0.3,0.6,0.6l0,2.3
			c0,0.3-0.3,0.6-0.6,0.6l-4,0c-0.3,0-0.6-0.3-0.6-0.6l0-2.3C326.5,240.4,326.8,240.1,327.2,240.1z"/>
		<path style="fill-rule:evenodd;clip-rule:evenodd;fill:#CCCCCC;" d="M333.5,240.1l2.1,0c0.3,0,0.6,0.3,0.6,0.6l0,2.3
			c0,0.3-0.3,0.6-0.6,0.6l-2.1,0c-0.3,0-0.6-0.3-0.6-0.6l0-2.3C332.9,240.4,333.1,240.1,333.5,240.1z"/>
		<path style="fill-rule:evenodd;clip-rule:evenodd;fill:#CCCCCC;" d="M300.1,246.7l22.2-0.1c0.3,0,0.6,0.3,0.6,0.6l0,10.7
			c0,0.3-0.3,0.6-0.6,0.6l-22.2,0.1c-0.3,0-0.6-0.3-0.6-0.6l0-10.7C299.5,247,299.8,246.7,300.1,246.7z"/>
		<path style="fill-rule:evenodd;clip-rule:evenodd;fill:#CCCCCC;" d="M299.6,259.4l11,0c0.1,0,0.1,0.1,0.1,0.1l0,2.2
			c0,0.1-0.1,0.1-0.1,0.1l-11,0c-0.1,0-0.1-0.1-0.1-0.1l0-2.2C299.5,259.4,299.6,259.4,299.6,259.4z"/>
		<path style="fill-rule:evenodd;clip-rule:evenodd;fill:#CCCCCC;" d="M311.8,259.4l11,0c0.1,0,0.1,0.1,0.1,0.1l0,2.2
			c0,0.1-0.1,0.1-0.1,0.1l-11,0c-0.1,0-0.1-0.1-0.1-0.1l0-2.2C311.6,259.4,311.7,259.4,311.8,259.4z"/>
		<g>
			<polygon style="fill:#104D7C;" points="350.5,197.5 271.4,197.7 270.5,195 351.4,194.8 			"/>
			<polygon style="fill:#A2D7E7;" points="348.7,203.3 273.2,203.5 271.4,197.7 350.5,197.5 			"/>
			<g>
				<g>
					<g>
						<polygon style="fill:#104D7C;" points="300.6,207.8 285.2,207.9 284.2,204.4 300,204.3 						"/>
					</g>
					<g>
						<polygon style="fill:#104D7C;" points="318.7,207.8 303.3,207.8 302.9,204.3 319.6,204.3 						"/>
					</g>
					<g>
						<polygon style="fill:#104D7C;" points="336.8,207.7 321.4,207.8 322.2,204.3 338,204.3 						"/>
					</g>
				</g>
			</g>
			
				<ellipse transform="matrix(1 -2.030640e-003 2.030640e-003 1 -0.398 0.585)" style="fill:#E6E7E8;" cx="287.9" cy="196.3" rx="2.6" ry="1"/>
			<g>
				
					<rect x="330.3" y="195.5" transform="matrix(-1 2.121836e-003 -2.121836e-003 -1 667.4502 391.2274)" style="fill:#E6E7E8;" width="6.4" height="0.9"/>
				
					<rect x="322.5" y="195.5" transform="matrix(-1 2.121836e-003 -2.121836e-003 -1 651.9425 391.281)" style="fill:#E6E7E8;" width="6.4" height="0.9"/>
				
					<rect x="314.8" y="195.5" transform="matrix(-1 2.424150e-003 -2.424150e-003 -1 636.4948 391.2363)" style="fill:#E6E7E8;" width="6.4" height="0.9"/>
				
					<rect x="307" y="195.6" transform="matrix(-1 2.424627e-003 -2.424627e-003 -1 620.9861 391.2892)" style="fill:#E6E7E8;" width="6.4" height="0.9"/>
			</g>
			<polygon style="fill:#A7A9AC;" points="300.7,208.5 300.8,209.2 285.6,209.2 285.3,208.5 			"/>
			<polygon style="fill:#A7A9AC;" points="301,209.6 301.1,210.2 285.9,210.3 285.6,209.6 			"/>
			<polygon style="fill:#A7A9AC;" points="321.4,208.4 321.2,209.1 336.5,209.1 336.7,208.4 			"/>
			<polygon style="fill:#A7A9AC;" points="321.1,209.5 321,210.2 336.2,210.2 336.4,209.5 			"/>
			<polygon style="fill:#A7A9AC;" points="303.4,208.5 303.5,209.2 318.4,209.1 318.6,208.5 			"/>
			<polygon style="fill:#A7A9AC;" points="303.5,209.6 303.7,210.2 318.1,210.2 318.3,209.5 			"/>
		</g>
	</g>
	<g id="men_4_">
		<g>
			<g>
				<g>
					<g>
						<path style="fill:#16B9C0;" d="M313,301.4c0,0-18,0.3-27.2-3.3c-9.2-3.6-7-28,3.7-45c-6.3-3.4-11.1-5.5-11.1-5.5
							s-16.8,30.8-17.4,44.3c-0.6,12.2,5.7,24.2,10.4,28.7c9.4,9,22.4,16.8,39.6,16.1C320.4,336.3,313,301.4,313,301.4z"/>
					</g>
				</g>
			</g>
			<g>
				<g>
					<g>
						<g>
							<path style="fill:#16B9C0;" d="M311.8,302.8c0,0,14.3,0.6,23.3-3.5c8.5-3.9,3.4-33.9-6.2-47.3c6.1-3.8,10.7-6.1,10.7-6.1
								s15.8,25.2,18.1,37.7c2.3,12.4,2.3,25.2-7.6,35.3c-8.7,8.8-28.2,19-41.4,17.6C299.5,335.6,311.8,302.8,311.8,302.8z"/>
						</g>
					</g>
				</g>
				<path style="fill:#16B9C0;" d="M283.4,296.3c5.5,3,4-19.3,4-19.3h44.1c0,0-1.1,25.2,4.8,21.5c4.4-2.8,0.7,20.8,0.7,20.8
					s-43.8,13.7-57.6-5.5C265.6,294.7,283.4,296.3,283.4,296.3z"/>
				<polyline style="fill:#FFFFFF;" points="299,306.2 308.3,277 319.5,306.2 				"/>
				<path style="fill:#FED7A5;" d="M337,247.3c0,0-2.5-5.9-2-7.4c1.2-3.5-1.6-12.2-3.8-13.8c-1.3-0.5,1.1,6,1.7,8.1
					c-1.1-3.3-4.2-10.3-5.5-10.2c-1.7,0.1,2.7,10.4,2.7,10.4s-5-11.2-6.2-10.7c-2.3,1,3.8,12,3.8,12s-4.1-6.8-4.8-8.6
					c-0.7-1.8-3.6-1.5-1.9,1.8c2.9,5.4,3.2,9.4,2.8,10c-0.4,0.6-2.8-0.4-3.4-2.4c-0.9-3.1-3.8-2.6-1.2,3.1c2.1,4.7,8.4,7.2,8.4,7.2
					l2.9,4.2L337,247.3z"/>
			</g>
			<path style="fill:#FED7A5;" d="M281,248.6c0,0,2.4-6,1.8-7.5c-1.3-3.4,1.2-12.2,3.4-13.9c1.3-0.5-1,6.1-1.5,8.1
				c1-3.4,3.8-10.4,5.1-10.4c1.7,0-2.4,10.5-2.4,10.5s4.6-11.3,5.9-10.9c2.3,0.9-3.5,12.1-3.5,12.1s3.9-7,4.5-8.8
				c0.6-1.8,3.6-1.6,1.9,1.7c-2.7,5.5-2.9,9.5-2.4,10.1c0.4,0.6,2.8-0.5,3.3-2.5c0.8-3.1,3.7-2.7,1.3,3.1c-1.9,4.7-8.2,7.5-8.2,7.5
				l-2.8,4.3L281,248.6z"/>
		</g>
		<g>
			<ellipse style="fill:#FED7A5;" cx="308.9" cy="304.5" rx="18.1" ry="14.9"/>
			<path style="fill:#7D4827;" d="M324.3,294.5c-4.5-3.7-11.5-1.4-14.2-1.5c-2.8-0.1-9.8-4.3-15.5,0.2c-1.9,1.5-3.2,3.4-3.3,3.6
				c-3.1,4.2-5,9.5-5,15.3c0,13.5,10,24.5,22.4,24.5c12.4,0,22.5-10.9,22.5-24.4C331.2,305.3,328.5,299,324.3,294.5L324.3,294.5z"/>
			<path style="fill:#673A1B;" d="M310.1,293c-0.4,0-0.8-0.1-1.3-0.2v43.8c12.4,0,22.4-10.9,22.5-24.4c0-6.9-2.6-13.2-6.9-17.7
				C319.8,290.8,312.8,293.2,310.1,293z"/>
		</g>
	</g>
	<g id="men_3_">
		<g>
			<g>
				<g>
					<g>
						<path style="fill:#2F4962;" d="M449,178.4c0,0,0.3,18-3.3,27.2c-3.6,9.2-28,7-45-3.7c-3.4,6.3-5.5,11.1-5.5,11.1
							s30.8,16.8,44.3,17.4c12.2,0.6,24.2-5.7,28.7-10.4c9-9.4,16.8-22.4,16.1-39.6C483.9,171,449,178.4,449,178.4z"/>
					</g>
				</g>
			</g>
			<g>
				<g>
					<g>
						<g>
							<path style="fill:#2F4962;" d="M450.4,179.7c0,0,0.6-14.3-3.5-23.3c-3.9-8.5-33.9-3.4-47.3,6.2c-3.8-6.1-6.1-10.7-6.1-10.7
								s25.2-15.8,37.7-18.1c12.4-2.3,25.2-2.3,35.3,7.6c8.8,8.7,19,28.2,17.6,41.4C483.2,192,450.4,179.7,450.4,179.7z"/>
						</g>
					</g>
				</g>
				<path style="fill:#2F4962;" d="M443.9,208.1c3-5.5-19.3-4-19.3-4V160c0,0,25.2,1.1,21.5-4.8c-2.8-4.4,20.8-0.7,20.8-0.7
					s13.7,43.8-5.5,57.6C442.2,225.9,443.9,208.1,443.9,208.1z"/>
				<polyline style="fill:#16B9C0;" points="453.7,192.5 424.6,183.1 453.7,171.9 				"/>
				<path style="fill:#FED7A5;" d="M394.8,154.5c0,0-5.9,2.5-7.4,2c-3.5-1.2-12.2,1.6-13.8,3.8c-0.5,1.3,6-1.1,8.1-1.7
					c-3.3,1.1-10.3,4.2-10.2,5.5c0.1,1.7,10.4-2.8,10.4-2.8s-11.2,5-10.7,6.2c1,2.3,12-3.8,12-3.8s-6.8,4.1-8.6,4.8
					c-1.8,0.7-1.5,3.6,1.8,1.9c5.4-2.9,9.4-3.2,10-2.8c0.6,0.4-0.4,2.8-2.4,3.4c-3.1,0.9-2.6,3.8,3.1,1.2c4.7-2.1,7.2-8.4,7.2-8.4
					l4.2-2.9L394.8,154.5z"/>
			</g>
			<path style="fill:#FED7A5;" d="M396.1,210.5c0,0-6-2.4-7.5-1.8c-3.4,1.3-12.2-1.2-13.9-3.4c-0.5-1.3,6.1,1,8.1,1.5
				c-3.4-1-10.4-3.8-10.4-5.1c0-1.7,10.5,2.4,10.5,2.4s-11.3-4.6-10.9-5.9c0.9-2.3,12.1,3.5,12.1,3.5s-7-3.9-8.8-4.5
				c-1.8-0.6-1.6-3.6,1.7-1.9c5.5,2.7,9.5,2.9,10.1,2.4c0.6-0.4-0.5-2.8-2.5-3.3c-3.1-0.8-2.7-3.7,3.1-1.3c4.7,1.9,7.5,8.2,7.5,8.2
				l4.3,2.8L396.1,210.5z"/>
		</g>
		<g>
			<ellipse style="fill:#FED7A5;" cx="452" cy="182.6" rx="14.9" ry="18.1"/>
			<path style="fill:#7D4827;" d="M442.1,167.2c-3.7,4.5-1.4,11.5-1.5,14.2c-0.1,2.8-4.3,9.8,0.2,15.5c1.5,1.9,3.4,3.2,3.6,3.3
				c4.2,3.1,9.5,5,15.3,5c13.5,0,24.5-10,24.5-22.4c0-12.4-10.9-22.5-24.4-22.5C452.8,160.2,446.5,162.9,442.1,167.2L442.1,167.2z"
				/>
			<path style="fill:#673A1B;" d="M440.6,181.4c0,0.4-0.1,0.8-0.2,1.3h43.8c0-12.4-10.9-22.4-24.4-22.5c-6.9,0-13.2,2.6-17.7,6.9
				C438.4,171.7,440.7,178.6,440.6,181.4z"/>
		</g>
	</g>
	<g id="men_2_">
		<g>
			<g>
				<g>
					<g>
						<path style="fill:#39B54A;" d="M298.4,54.6c0,0,18-0.3,27.2,3.3c9.2,3.6,7,28-3.7,45c6.3,3.4,11.1,5.5,11.1,5.5
							s16.8-30.8,17.4-44.3c0.6-12.2-5.7-24.2-10.4-28.7c-9.4-9-22.4-16.8-39.6-16.1C291,19.7,298.4,54.6,298.4,54.6z"/>
					</g>
				</g>
			</g>
			<g>
				<g>
					<path style="fill:#FED7A5;" d="M274.4,108.2l3.9,7.8l2,10.6c0,0,6,4.5,7.1,5.2c1.2,0.8,1.6,0.4,2.4,0c0.7-0.4,4.9-2.9,5.5-3.3
						c0.6-0.3,0.9-0.6,0.9-1.2c0-0.6,0-1.8,0-2.1c0-0.3-1-1.2-1.4,0.1c-0.4,1.3-0.4,1.3-0.4,1.3l-4.5,1.9l-3.5-4.7l0-3.7l1-9
						l-6.3-6.5L274.4,108.2z"/>
					<path style="fill:#FED7A5;" d="M281.1,124.9c0,0,3.2,3.9,4.4,4.7c1.2,0.8,1.6,0.4,2.3,0c0.7-0.4,4.9-2.9,5.5-3.3
						c0.6-0.3,0.9-0.6,0.9-1.2c0-0.6,0-1.8,0-2.1c0-0.3-1-1.2-1.4,0.1c-0.4,1.3-0.4,1.3-0.4,1.3l-4.5,1.9l-3.5-4.7"/>
					<g>
						<g>
							<g>
								<g>
									<path style="fill:#12232B;" d="M281.4,136.7l1.1,1.1l0.5,0.5l16.2-16.4l0,0l0.5-1.5l0,0l0.5-1.5l-1.5,0.5c0,0,0,0,0,0
										l-1.5,0.5c0,0,0,0,0,0L281,136.2L281.4,136.7z M296.9,121c0.2-0.3,0.4-0.6,0.3-0.9C297.3,120.4,297.1,120.7,296.9,121z
										 M297.3,120L297.3,120L297.3,120z"/>
								</g>
							</g>
							<g>
								<polygon style="fill:#12232B;" points="280.5,137.6 281.6,138.7 282.1,139.2 283,138.3 282.6,137.8 281.4,136.7 
									280.9,136.2 280,137.1 								"/>
							</g>
						</g>
					</g>
					<path style="fill:#FED7A5;" d="M287.3,111.3c0,0,3.1,2.8,4.1,5.7c1.1,2.9,3.1,8.9,3.1,8.9s0.4,2-0.8,2.3
						c-1.2,0.4-2.5-2.3-2.5-2.3s-1.5-5.8-5.5-6.2C284.4,118.2,287.3,111.3,287.3,111.3z"/>
				</g>
				<g>
					<g>
						<g>
							<path style="fill:#39B54A;" d="M299.7,53.2c0,0-14.3-0.6-23.3,3.5c-8.5,3.9-3.3,33.9,6.2,47.3c-6.1,3.8-10.7,6.1-10.7,6.1
								s-15.8-25.2-18.1-37.7c-2.3-12.4-2.3-25.2,7.6-35.3c8.7-8.8,28.2-19,41.4-17.6C312,20.4,299.7,53.2,299.7,53.2z"/>
						</g>
					</g>
				</g>
				<path style="fill:#39B54A;" d="M328.1,59.7c-5.5-3-4,19.3-4,19.3H280c0,0,1.1-25.2-4.8-21.5c-4.4,2.8-0.7-20.8-0.7-20.8
					s43.8-13.7,57.6,5.5C345.9,61.4,328.1,59.7,328.1,59.7z"/>
				<polyline style="fill:#FFFFFF;" points="312.5,49.8 303.1,79 291.9,49.8 				"/>
			</g>
			<path style="fill:#FED7A5;" d="M330.5,107.4c0,0-2.4,6-1.8,7.5c1.3,3.4-1.2,12.2-3.4,13.9c-1.3,0.5,1-6.1,1.5-8.1
				c-1,3.4-3.8,10.4-5.1,10.4c-1.7,0,2.4-10.5,2.4-10.5s-4.6,11.3-5.9,10.9c-2.3-0.9,3.5-12.1,3.5-12.1s-3.9,7-4.5,8.8
				c-0.6,1.8-3.6,1.6-1.9-1.7c2.7-5.5,2.9-9.5,2.4-10.1c-0.4-0.6-2.8,0.5-3.3,2.5c-0.8,3.1-3.7,2.7-1.3-3.1c1.9-4.7,8.2-7.5,8.2-7.5
				l2.8-4.3L330.5,107.4z"/>
		</g>
		<g>
			<ellipse style="fill:#FED7A5;" cx="302.6" cy="51.5" rx="18.1" ry="14.9"/>
			<path style="fill:#FA9D22;" d="M287.2,61.5c4.5,3.7,11.5,1.4,14.2,1.5c2.8,0.1,9.8,4.3,15.5-0.2c1.9-1.5,3.2-3.4,3.3-3.6
				c3.1-4.2,5-9.5,5-15.3c0-13.5-10-24.5-22.4-24.5c-12.4,0-22.5,10.9-22.5,24.4C280.3,50.8,282.9,57,287.2,61.5L287.2,61.5z"/>
			<path style="fill:#F4781F;" d="M301.4,63c0.4,0,0.8,0.1,1.3,0.2V19.5c-12.4,0-22.4,10.9-22.5,24.4c0,6.9,2.6,13.2,6.9,17.7
				C291.7,65.2,298.7,62.9,301.4,63z"/>
		</g>
	</g>
	<g id="men_1_">
		<g>
			<g>
				<g>
					<g>
						<path style="fill:#16B9C0;" d="M158.6,54.6c0,0,18-0.3,27.2,3.3c9.2,3.6,7,28-3.7,45c6.3,3.4,11.1,5.5,11.1,5.5
							s16.8-30.8,17.4-44.3c0.6-12.2-5.7-24.2-10.4-28.7c-9.4-9-22.4-16.8-39.6-16.1C151.2,19.7,158.6,54.6,158.6,54.6z"/>
					</g>
				</g>
			</g>
			<g>
				<g>
					<g>
						<g>
							<path style="fill:#16B9C0;" d="M159.9,53.2c0,0-14.3-0.6-23.3,3.5c-8.5,3.9-3.4,33.9,6.2,47.3c-6.1,3.8-10.7,6.1-10.7,6.1
								s-15.8-25.2-18.1-37.7c-2.3-12.4-2.3-25.2,7.6-35.3c8.7-8.8,28.2-19,41.4-17.6C172.2,20.4,159.9,53.2,159.9,53.2z"/>
						</g>
					</g>
				</g>
				<path style="fill:#16B9C0;" d="M188.3,59.7c-5.5-3-4,19.3-4,19.3h-44.1c0,0,1.1-25.2-4.8-21.5c-4.4,2.8-0.7-20.8-0.7-20.8
					s43.8-13.7,57.6,5.5C206.1,61.4,188.3,59.7,188.3,59.7z"/>
				<polyline style="fill:#FFFFFF;" points="172.7,49.8 163.3,79 152.1,49.8 				"/>
				<path style="fill:#FED7A5;" d="M134.7,108.7c0,0,2.5,5.9,2,7.4c-1.2,3.5,1.6,12.2,3.8,13.8c1.3,0.5-1.1-6-1.7-8.1
					c1.1,3.3,4.2,10.3,5.5,10.2c1.7-0.1-2.7-10.4-2.7-10.4s5,11.2,6.2,10.7c2.3-1-3.8-12-3.8-12s4.1,6.8,4.8,8.6
					c0.7,1.8,3.6,1.5,1.9-1.8c-2.9-5.4-3.2-9.4-2.8-10c0.4-0.6,2.8,0.4,3.4,2.4c0.9,3.1,3.8,2.6,1.2-3.1c-2.1-4.7-8.4-7.2-8.4-7.2
					l-2.9-4.2L134.7,108.7z"/>
			</g>
			<path style="fill:#FED7A5;" d="M190.7,107.4c0,0-2.4,6-1.8,7.5c1.3,3.4-1.2,12.2-3.4,13.9c-1.3,0.5,1-6.1,1.5-8.1
				c-1,3.4-3.8,10.4-5.1,10.4c-1.7,0,2.4-10.5,2.4-10.5s-4.6,11.3-5.9,10.9c-2.3-0.9,3.5-12.1,3.5-12.1s-3.9,7-4.5,8.8
				c-0.6,1.8-3.6,1.6-1.9-1.7c2.7-5.5,2.9-9.5,2.4-10.1c-0.4-0.6-2.8,0.5-3.3,2.5c-0.8,3.1-3.7,2.7-1.3-3.1c1.9-4.7,8.2-7.5,8.2-7.5
				l2.8-4.3L190.7,107.4z"/>
		</g>
		<g>
			<ellipse style="fill:#FED7A5;" cx="162.8" cy="51.5" rx="18.1" ry="14.9"/>
			<path style="fill:#7D4827;" d="M147.4,61.5c4.5,3.7,11.5,1.4,14.2,1.5c2.8,0.1,9.8,4.3,15.5-0.2c1.9-1.5,3.2-3.4,3.3-3.6
				c3.1-4.2,5-9.5,5-15.3c0-13.5-10-24.5-22.4-24.5c-12.4,0-22.5,10.9-22.5,24.4C140.5,50.8,143.1,57,147.4,61.5L147.4,61.5z"/>
			<path style="fill:#673A1B;" d="M161.6,63c0.4,0,0.8,0.1,1.3,0.2V19.5c-12.4,0-22.4,10.9-22.5,24.4c0,6.9,2.6,13.2,6.9,17.7
				C151.9,65.2,158.8,62.9,161.6,63z"/>
		</g>
	</g>
	<g id="pen">
		<g>
			<g>
				<polygon style="fill:#2D343A;" points="192.5,173.2 193,171.8 193.2,171.3 165.9,160.5 165.9,160.5 163.9,160.4 163.9,160.4 
					162.1,160.4 163.4,161.7 163.4,161.7 164.9,163 164.9,163 192.3,173.8 				"/>
			</g>
			<g>
				<g>
					<path style="fill:#2D343A;" d="M193.9,174.4l-1.6-0.6l0.2-0.6l0.5-1.4l0.2-0.6l1.6,0.6l-0.2,0.6l-0.5,1.4L193.9,174.4z"/>
				</g>
			</g>
		</g>
	</g>
	<g id="glasses">
		<g>
			<g>
				<path style="fill:#50667E;" d="M227.9,241.7c0-0.1,0-0.2,0.1-0.3l3.1-5.8c0.6-1.1,1.1-2.3,1.4-3.6c0.3-1.2,0.5-2.5,0.5-3.8
					v-25.7h1.4v25.7c0,1.4-0.2,2.8-0.5,4.1c-0.3,1.3-0.8,2.7-1.5,3.9l-3.1,5.8c-0.2,0.3-0.6,0.5-0.9,0.3
					C228.1,242.2,227.9,242,227.9,241.7z"/>
				<path style="fill:#50667E;" d="M227.9,201.8c0,0.1,0,0.2,0.1,0.3l3.1,5.8c0.6,1.1,1.1,2.3,1.4,3.6c0.3,1.2,0.5,2.5,0.5,3.8V241
					h1.4v-25.7c0-1.4-0.2-2.8-0.5-4.1s-0.8-2.7-1.5-3.9l-3.1-5.8c-0.2-0.3-0.6-0.5-0.9-0.3C228.1,201.3,227.9,201.5,227.9,201.8z"/>
			</g>
		</g>
		<path style="fill:#20364D;" d="M233.3,219.9L233.3,219.9c1,0,1.8,0.8,1.8,1.8c0,1-0.8,1.8-1.8,1.8l0,0v1.4l0,0
			c1.8,0,3.2-1.4,3.2-3.2s-1.4-3.2-3.2-3.2l0,0V219.9z"/>
		<g>
			<path style="fill:#E1EFFA;" d="M231.1,218.5c-1.5,0-2.7-1.2-2.7-2.7v-9.3c0-1.5,1.2-2.7,2.7-2.7h5c1.5,0,2.7,1.2,2.7,2.7v9.3
				c0,1.5-1.2,2.7-2.7,2.7H231.1z"/>
			<path style="fill:#CEE2F2;" d="M238.8,215.9v-5.1h-10.3v5.1c0,1.5,1.2,2.7,2.7,2.7h5C237.6,218.5,238.8,217.3,238.8,215.9z"/>
		</g>
		<g>
			<path style="fill:#E1EFFA;" d="M231.1,239.6c-1.5,0-2.7-1.2-2.7-2.7v-9.3c0-1.5,1.2-2.7,2.7-2.7h5c1.5,0,2.7,1.2,2.7,2.7v9.3
				c0,1.5-1.2,2.7-2.7,2.7H231.1z"/>
			<path style="fill:#CEE2F2;" d="M238.8,236.9v-5.1h-10.3v5.1c0,1.5,1.2,2.7,2.7,2.7h5C237.6,239.6,238.8,238.4,238.8,236.9z"/>
		</g>
		<path style="fill:#2A445E;" d="M240.1,216.6v-10.7c0-1.9-1.5-3.4-3.4-3.4h-6.3c-1.9,0-3.4,1.5-3.4,3.4v10.7c0,1.9,1.5,3.4,3.4,3.4
			h6.3C238.6,219.9,240.1,218.4,240.1,216.6z M231.1,218.5c-1.5,0-2.7-1.2-2.7-2.7v-9.3c0-1.5,1.2-2.7,2.7-2.7h5
			c1.5,0,2.7,1.2,2.7,2.7v9.3c0,1.5-1.2,2.7-2.7,2.7H231.1z"/>
		<path style="fill:#2A445E;" d="M240.1,237.6v-10.7c0-1.9-1.5-3.4-3.4-3.4h-6.3c-1.9,0-3.4,1.5-3.4,3.4v10.7c0,1.9,1.5,3.4,3.4,3.4
			h6.3C238.6,241,240.1,239.5,240.1,237.6z M231.1,239.6c-1.5,0-2.7-1.2-2.7-2.7v-9.3c0-1.5,1.2-2.7,2.7-2.7h5
			c1.5,0,2.7,1.2,2.7,2.7v9.3c0,1.5-1.2,2.7-2.7,2.7H231.1z"/>
	</g>
	<g id="book">
		<rect x="103.2" y="154" style="fill:#FEC00F;" width="52.9" height="37.4"/>
		<rect x="103.2" y="154" style="fill:#F07549;" width="52.9" height="1.2"/>
		<rect x="125.7" y="160.4" style="fill:#F2F2F2;" width="8.1" height="23.1"/>
		<rect x="144.2" y="160.4" style="fill:#F2F2F2;" width="5.9" height="23.1"/>
		<rect x="107.5" y="160.4" style="fill:#F2F2F2;" width="3" height="23.1"/>
	</g>
	<g id="men">
		<g>
			<g>
				<g>
					<g>
						<path style="fill:#2F4962;" d="M50.1,179.4c0,0-0.3-18,3.3-27.2c3.6-9.2,28-7,45,3.7c3.4-6.3,5.5-11.1,5.5-11.1
							s-30.8-16.8-44.3-17.4c-12.2-0.6-24.2,5.7-28.7,10.4c-9,9.4-16.8,22.4-16.1,39.6C15.2,186.8,50.1,179.4,50.1,179.4z"/>
					</g>
				</g>
			</g>
			<g>
				<g>
					<g>
						<g>
							<path style="fill:#2F4962;" d="M48.7,178.2c0,0-0.6,14.3,3.5,23.3c3.9,8.5,33.9,3.3,47.3-6.2c3.8,6.1,6.1,10.7,6.1,10.7
								s-25.2,15.8-37.7,18.1c-12.4,2.3-25.2,2.3-35.3-7.6c-8.8-8.7-19-28.2-17.6-41.4C15.9,165.9,48.7,178.2,48.7,178.2z"/>
						</g>
					</g>
				</g>
				<path style="fill:#2F4962;" d="M55.1,149.8c-3,5.5,19.3,4,19.3,4v44.1c0,0-25.2-1.1-21.5,4.8c2.8,4.4-20.8,0.7-20.8,0.7
					s-13.7-43.8,5.5-57.6C56.8,132,55.1,149.8,55.1,149.8z"/>
				<polyline style="fill:#FFFFFF;" points="45.3,165.4 74.4,174.7 45.3,185.9 				"/>
				<path style="fill:#FED7A5;" d="M104.2,203.4c0,0,5.9-2.5,7.4-2c3.5,1.2,12.2-1.6,13.8-3.8c0.5-1.3-6,1.1-8.1,1.7
					c3.3-1.1,10.3-4.2,10.2-5.5c-0.1-1.7-10.4,2.8-10.4,2.8s11.2-5,10.7-6.2c-1-2.3-12,3.8-12,3.8s6.8-4.1,8.6-4.8
					c1.8-0.7,1.5-3.6-1.8-1.9c-5.4,2.9-9.4,3.2-10,2.8c-0.6-0.4,0.4-2.8,2.4-3.4c3.1-0.9,2.6-3.8-3.1-1.2c-4.7,2.1-7.2,8.4-7.2,8.4
					l-4.2,2.9L104.2,203.4z"/>
			</g>
			<path style="fill:#FED7A5;" d="M102.9,147.3c0,0,6,2.4,7.5,1.8c3.4-1.3,12.2,1.2,13.9,3.4c0.5,1.3-6.1-1-8.1-1.5
				c3.4,1,10.4,3.8,10.4,5.1c0,1.7-10.5-2.4-10.5-2.4s11.3,4.6,10.9,5.9c-0.9,2.3-12.1-3.5-12.1-3.5s7,3.9,8.8,4.5
				c1.8,0.6,1.6,3.6-1.7,1.9c-5.5-2.7-9.5-2.9-10.1-2.4c-0.6,0.4,0.5,2.8,2.5,3.3c3.1,0.8,2.7,3.7-3.1,1.3c-4.7-1.9-7.5-8.2-7.5-8.2
				l-4.3-2.8L102.9,147.3z"/>
		</g>
		<g>
			<ellipse style="fill:#FED7A5;" cx="47" cy="175.2" rx="14.9" ry="18.1"/>
			<path style="fill:#A7A8AC;" d="M56.9,190.7c3.7-4.5,1.4-11.5,1.5-14.2c0.1-2.8,4.3-9.8-0.2-15.5c-1.5-1.9-3.4-3.2-3.6-3.3
				c-4.2-3.1-9.5-5-15.3-5c-13.5,0-24.5,10-24.5,22.4c0,12.4,10.9,22.5,24.4,22.5C46.2,197.6,52.5,194.9,56.9,190.7L56.9,190.7z"/>
			<path style="fill:#949599;" d="M58.5,176.4c0-0.4,0.1-0.8,0.2-1.3H14.9c0,12.4,10.9,22.4,24.4,22.5c6.9,0,13.2-2.6,17.7-6.9
				C60.6,186.1,58.3,179.2,58.5,176.4z"/>
		</g>
	</g>
</g>
</svg>
