<?xml version="1.0" encoding="utf-8"?>
<!-- Generator: Adobe Illustrator 16.0.0, SVG Export Plug-In . SVG Version: 6.00 Build 0)  -->
<!DOCTYPE svg PUBLIC "-//W3C//DTD SVG 1.1//EN" "http://www.w3.org/Graphics/SVG/1.1/DTD/svg11.dtd">
<svg version="1.1" id="Layer_1" xmlns="http://www.w3.org/2000/svg" xmlns:xlink="http://www.w3.org/1999/xlink" x="0px" y="0px"
	 width="251.4px" height="252.7px" viewBox="0 0 251.4 252.7" style="enable-background:new 0 0 251.4 252.7;" xml:space="preserve"
	>
<g>
	<defs>
		<circle id="SVGID_1_" cx="124.1" cy="126" r="118.5"/>
	</defs>
	<clipPath id="SVGID_2_">
		<use xlink:href="#SVGID_1_"  style="overflow:visible;"/>
	</clipPath>
	
		<circle style="clip-path:url(#SVGID_2_);fill:none;stroke:#667080;stroke-width:3;stroke-miterlimit:10;" cx="124.1" cy="126" r="118.5"/>
	<g style="clip-path:url(#SVGID_2_);">
		<path style="fill:#667080;" d="M182.9,205c-27.3-9.9-36-18.3-36-36.2c0-10.8,8.3-7.3,12-27c1.5-8.2,8.9-0.1,10.3-18.8
			c0-7.4-4-9.3-4-9.3s2-11,2.8-19.5c1-10.6-6.1-37.8-43.9-37.8c-37.8,0-44.9,27.3-43.9,37.8c0.8,8.5,2.8,19.5,2.8,19.5s-4,1.9-4,9.3
			c1.4,18.7,8.8,10.6,10.3,18.8c3.7,19.7,12,16.2,12,27c0,17.9-8.7,26.3-36,36.2c-27.3,10-45.1,20.1-45.1,27c0,6.9,0,23.3,0,23.3
			h103.9H228c0,0,0-16.4,0-23.3C228,225.1,210.2,215,182.9,205z"/>
	</g>
</g>
</svg>
