<?xml version="1.0" encoding="utf-8"?>
<!-- Generator: Adobe Illustrator 16.0.0, SVG Export Plug-In . SVG Version: 6.00 Build 0)  -->
<!DOCTYPE svg PUBLIC "-//W3C//DTD SVG 1.1//EN" "http://www.w3.org/Graphics/SVG/1.1/DTD/svg11.dtd">
<svg version="1.1" id="Layer_1" xmlns="http://www.w3.org/2000/svg" xmlns:xlink="http://www.w3.org/1999/xlink" x="0px" y="0px"
	 width="308px" height="308px" viewBox="0 0 308 308" style="enable-background:new 0 0 308 308;" xml:space="preserve">
<circle style="fill:#FFFFFF;stroke:#0B4EB7;stroke-miterlimit:10;" cx="153.9" cy="155" r="146.5"/>
<g>
	<path id="XMLID_2944_" style="fill:none;stroke:#F0B32F;stroke-width:2;stroke-miterlimit:10;" d="M279.5,203.6l-31.8-31.8
		c4.2-7,6.6-15.2,6.6-23.9c0-25.8-21-46.8-46.8-46.8c-25.8,0-46.8,21-46.8,46.8c0,25.8,21,46.8,46.8,46.8c7.8,0,15.2-2,21.7-5.4
		l32.3,32.3L279.5,203.6z M169.1,147.9c0-21.1,17.2-38.3,38.3-38.3s38.3,17.2,38.3,38.3c0,21.1-17.2,38.3-38.3,38.3
		S169.1,169,169.1,147.9z"/>
	<g>
		<defs>
			<path id="SVGID_1_" d="M65.4,187.7c0,5.1,4.1,9.2,9.2,9.2c5.1,0,9.2-4.1,9.2-9.2c0-5.1-4.1-9.2-9.2-9.2
				C69.5,178.4,65.4,182.6,65.4,187.7"/>
		</defs>
		<clipPath id="SVGID_2_">
			<use xlink:href="#SVGID_1_"  style="overflow:visible;"/>
		</clipPath>
		<rect x="53.8" y="166.9" style="clip-path:url(#SVGID_2_);fill:#F0B32F;" width="41.6" height="41.6"/>
	</g>
	<rect x="100" y="173.8" style="fill:#297CBF;" width="4.6" height="43.9"/>
	<g>
		<defs>
			<path id="SVGID_3_" d="M111.5,180.8H130v4.6h-18.5V180.8z M111.5,178.4c-1.3,0-2.3,1-2.3,2.3v4.6c0,1.3,1,2.3,2.3,2.3H130
				c1.3,0,2.3-1,2.3-2.3v-4.6c0-1.3-1-2.3-2.3-2.3H111.5z"/>
		</defs>
		<clipPath id="SVGID_4_">
			<use xlink:href="#SVGID_3_"  style="overflow:visible;"/>
		</clipPath>
		<rect x="97.7" y="166.9" style="clip-path:url(#SVGID_4_);fill:#F0B32F;" width="46.2" height="32.3"/>
	</g>
	<g>
		<defs>
			<path id="SVGID_5_" d="M67.7,88.4c-5.1,0-9.2,4.2-9.2,9.2v16.2H75l1.8-2.3H60.7V97.6c0-3.8,3.1-6.9,6.9-6.9h69.3
				c3.8,0,6.9,3.1,6.9,6.9v13.9h-16.2l1.8,2.3h16.8V97.6c0-5.1-4.2-9.2-9.2-9.2H67.7z"/>
		</defs>
		<clipPath id="SVGID_6_">
			<use xlink:href="#SVGID_5_"  style="overflow:visible;"/>
		</clipPath>
		<rect x="46.9" y="76.8" style="clip-path:url(#SVGID_6_);fill:#297CBF;" width="110.8" height="48.5"/>
	</g>
	<g>
		<defs>
			<path id="SVGID_7_" d="M167,199.2h6.9v9.2H167V199.2z M167,196.9c-1.3,0-2.3,1-2.3,2.3v9.2c0,1.3,1,2.3,2.3,2.3h6.9
				c1.3,0,2.3-1,2.3-2.3v-9.2c0-1.3-1-2.3-2.3-2.3H167z"/>
		</defs>
		<clipPath id="SVGID_8_">
			<use xlink:href="#SVGID_7_"  style="overflow:visible;"/>
		</clipPath>
		<rect x="153.1" y="185.4" style="clip-path:url(#SVGID_8_);fill:#F0B32F;" width="34.6" height="36.9"/>
	</g>
	<polygon style="fill:#297CBF;" points="144.9,136.9 144.8,139.2 150.8,139.2 150.8,171.5 53.8,171.5 53.8,139.2 59.4,139.2 
		59.4,136.9 51.5,136.9 51.5,173.8 153.1,173.8 153.1,136.9 	"/>
	<g>
		<defs>
			<path id="SVGID_9_" d="M56.1,111.5c-5.1,0-9.2,4.1-9.2,9.2v18.5h12.5l0.2-2.3H49.2v-16.2c0-3.8,3.1-6.9,6.9-6.9H75l1.8-2.3H56.1z
				 M127.7,111.5l1.5,2.3h19.3c3.8,0,6.9,3.1,6.9,6.9v16.2h-10.7l-0.2,2.3h13.2v-18.5c0-5.1-4.1-9.2-9.2-9.2H127.7z"/>
		</defs>
		<clipPath id="SVGID_10_">
			<use xlink:href="#SVGID_9_"  style="overflow:visible;"/>
		</clipPath>
		<rect x="35.3" y="99.9" style="clip-path:url(#SVGID_10_);fill:#F0B32F;" width="133.9" height="50.8"/>
	</g>
	<g>
		<defs>
			<path id="SVGID_11_" d="M67.7,136.9c0-19.1,15.5-34.6,34.6-34.6c19.1,0,34.6,15.5,34.6,34.6c0,19.1-15.5,34.6-34.6,34.6
				C83.2,171.5,67.7,156,67.7,136.9 M65.4,136.9c0,20.4,16.5,37,36.9,37c20.4,0,36.9-16.5,36.9-37c0-20.4-16.5-36.9-36.9-36.9
				C81.9,99.9,65.4,116.5,65.4,136.9"/>
		</defs>
		<clipPath id="SVGID_12_">
			<use xlink:href="#SVGID_11_"  style="overflow:visible;"/>
		</clipPath>
		<rect x="53.8" y="88.4" style="clip-path:url(#SVGID_12_);fill:#297CBF;" width="97" height="97"/>
	</g>
	<g>
		<defs>
			<path id="SVGID_13_" d="M67.7,136.9c0-16,10.7-23.1,34.6-23.1c24,0,34.6,7.1,34.6,23.1c0,17.4-13,27.7-34.6,27.7
				C80.6,164.6,67.7,154.2,67.7,136.9 M65.4,136.9c0,20.4,16.5,30,36.9,30c20.4,0,36.9-9.6,36.9-30c0-20.4-16.5-25.4-36.9-25.4
				C81.9,111.5,65.4,116.5,65.4,136.9"/>
		</defs>
		<clipPath id="SVGID_14_">
			<use xlink:href="#SVGID_13_"  style="overflow:visible;"/>
		</clipPath>
		<rect x="53.8" y="99.9" style="clip-path:url(#SVGID_14_);fill:#297CBF;" width="97" height="78.5"/>
	</g>
	<g>
		<defs>
			<path id="SVGID_15_" d="M30.7,199.2c0-14,11.4-25.4,25.4-25.4h92.4c14,0,25.4,11.4,25.4,25.4v16.2H30.7V199.2z M56.1,171.5
				c-15.3,0-27.7,12.4-27.7,27.7v18.5h147.8v-18.5c0-15.3-12.4-27.7-27.7-27.7H56.1z"/>
		</defs>
		<clipPath id="SVGID_16_">
			<use xlink:href="#SVGID_15_"  style="overflow:visible;"/>
		</clipPath>
		<rect x="16.9" y="160" style="clip-path:url(#SVGID_16_);fill:#297CBF;" width="170.9" height="69.3"/>
	</g>
	<g>
		<defs>
			<path id="SVGID_17_" d="M60.7,141.5v-9.2c0-1.3,1-2.3,2.3-2.3h2.3v13.9H63C61.8,143.8,60.7,142.8,60.7,141.5 M63,127.6
				c-2.6,0-4.6,2.1-4.6,4.6v9.2c0,2.6,2.1,4.6,4.6,4.6h4.6v-18.5H63z"/>
		</defs>
		<clipPath id="SVGID_18_">
			<use xlink:href="#SVGID_17_"  style="overflow:visible;"/>
		</clipPath>
		<rect x="46.9" y="116.1" style="clip-path:url(#SVGID_18_);fill:#297CBF;" width="32.3" height="41.6"/>
	</g>
	<g>
		<defs>
			<path id="SVGID_19_" d="M139.3,129.9h2.3c1.3,0,2.3,1,2.3,2.3v9.2c0,1.3-1,2.3-2.3,2.3h-2.3V129.9z M136.9,127.6v18.5h4.6
				c2.6,0,4.6-2.1,4.6-4.6v-9.2c0-2.6-2.1-4.6-4.6-4.6H136.9z"/>
		</defs>
		<clipPath id="SVGID_20_">
			<use xlink:href="#SVGID_19_"  style="overflow:visible;"/>
		</clipPath>
		<rect x="125.4" y="116.1" style="clip-path:url(#SVGID_20_);fill:#297CBF;" width="32.3" height="41.6"/>
	</g>
	<g>
		<defs>
			<path id="SVGID_21_" d="M139.3,108v20.8c0,0.6,0.5,1.2,1.2,1.2c0.6,0,1.2-0.5,1.2-1.2V108c0-0.6-0.5-1.2-1.2-1.2
				C139.8,106.9,139.3,107.4,139.3,108"/>
		</defs>
		<clipPath id="SVGID_22_">
			<use xlink:href="#SVGID_21_"  style="overflow:visible;"/>
		</clipPath>
		<rect x="127.7" y="95.3" style="clip-path:url(#SVGID_22_);fill:#297CBF;" width="25.4" height="46.2"/>
	</g>
	<g>
		<defs>
			<path id="SVGID_23_" d="M72.3,135.7c0,0.6,0.5,1.2,1.2,1.2s1.2-0.5,1.2-1.2c0-7.1,7.4-15,17.3-15c0.6,0,1.2-0.5,1.2-1.2
				c0-0.6-0.5-1.2-1.2-1.2C80.7,118.4,72.3,127.5,72.3,135.7"/>
		</defs>
		<clipPath id="SVGID_24_">
			<use xlink:href="#SVGID_23_"  style="overflow:visible;"/>
		</clipPath>
		<rect x="60.7" y="106.9" style="clip-path:url(#SVGID_24_);fill:#F0B32F;" width="43.9" height="41.6"/>
	</g>
	<rect x="143.9" y="173.8" style="fill:#297CBF;" width="2.3" height="43.9"/>
	<rect x="58.4" y="173.8" style="fill:#297CBF;" width="2.3" height="43.9"/>
</g>
</svg>
